<svg viewBox="0 0 900 700" xmlns="http://www.w3.org/2000/svg">
  <!-- Background -->
  <rect width="900" height="700" fill="#f8f9fa"/>
  
  <!-- Title -->
  <text x="450" y="35" text-anchor="middle" font-size="24" font-weight="bold" fill="#2c3e50">OAuth/OIDC + パスキー連携アーキテクチャ</text>
  
  <!-- Cloud Sync Providers -->
  <g transform="translate(50, 80)">
    <text x="400" y="0" text-anchor="middle" font-size="16" font-weight="bold" fill="#2c3e50">パスキー同期プロバイダー</text>
    
    <!-- iCloud -->
    <g transform="translate(0, 20)">
      <rect width="150" height="60" rx="10" fill="#f0f0f0" stroke="#666" stroke-width="2"/>
      <text x="75" y="25" text-anchor="middle" font-size="14" font-weight="bold" fill="#333">iCloud</text>
      <text x="75" y="40" text-anchor="middle" font-size="12" fill="#666">Keychain</text>
      <text x="75" y="55" text-anchor="middle" font-size="20">🍎</text>
    </g>
    
    <!-- Google -->
    <g transform="translate(180, 20)">
      <rect width="150" height="60" rx="10" fill="#e8f5e9" stroke="#4caf50" stroke-width="2"/>
      <text x="75" y="25" text-anchor="middle" font-size="14" font-weight="bold" fill="#2e7d32">Google</text>
      <text x="75" y="40" text-anchor="middle" font-size="12" fill="#4caf50">Password Manager</text>
      <text x="75" y="55" text-anchor="middle" font-size="20">🔑</text>
    </g>
    
    <!-- Microsoft -->
    <g transform="translate(360, 20)">
      <rect width="150" height="60" rx="10" fill="#e3f2fd" stroke="#2196f3" stroke-width="2"/>
      <text x="75" y="25" text-anchor="middle" font-size="14" font-weight="bold" fill="#1565c0">Microsoft</text>
      <text x="75" y="40" text-anchor="middle" font-size="12" fill="#2196f3">Authenticator</text>
      <text x="75" y="55" text-anchor="middle" font-size="20">🔐</text>
    </g>
    
    <!-- Hardware Keys -->
    <g transform="translate(540, 20)">
      <rect width="150" height="60" rx="10" fill="#fff3cd" stroke="#ffc107" stroke-width="2"/>
      <text x="75" y="25" text-anchor="middle" font-size="14" font-weight="bold" fill="#f57c00">Hardware</text>
      <text x="75" y="40" text-anchor="middle" font-size="12" fill="#ff6f00">Security Keys</text>
      <text x="75" y="55" text-anchor="middle" font-size="20">🔒</text>
    </g>
  </g>
  
  <!-- User Devices -->
  <g transform="translate(50, 200)">
    <text x="200" y="0" font-size="16" font-weight="bold" fill="#2c3e50">ユーザーデバイス</text>
    
    <!-- Phone -->
    <g transform="translate(0, 20)">
      <rect width="100" height="80" rx="10" fill="#2c3e50"/>
      <rect x="10" y="10" width="80" height="55" fill="#3498db"/>
      <text x="50" y="40" text-anchor="middle" font-size="20" fill="white">📱</text>
      <text x="50" y="100" text-anchor="middle" font-size="12" fill="#2c3e50">スマートフォン</text>
    </g>
    
    <!-- Laptop -->
    <g transform="translate(130, 20)">
      <rect x="10" y="20" width="80" height="50" rx="5" fill="#34495e"/>
      <rect x="15" y="25" width="70" height="40" fill="#3498db"/>
      <text x="50" y="50" text-anchor="middle" font-size="20" fill="white">💻</text>
      <rect x="0" y="70" width="100" height="10" rx="2" fill="#2c3e50"/>
      <text x="50" y="100" text-anchor="middle" font-size="12" fill="#2c3e50">ノートPC</text>
    </g>
    
    <!-- Tablet -->
    <g transform="translate(260, 20)">
      <rect width="80" height="60" rx="8" fill="#2c3e50"/>
      <rect x="5" y="5" width="70" height="50" fill="#3498db"/>
      <text x="40" y="35" text-anchor="middle" font-size="20" fill="white">📲</text>
      <text x="40" y="80" text-anchor="middle" font-size="12" fill="#2c3e50">タブレット</text>
    </g>
  </g>
  
  <!-- OAuth Flow with Passkey -->
  <g transform="translate(50, 350)">
    <text x="400" y="0" text-anchor="middle" font-size="18" font-weight="bold" fill="#2c3e50">パスキー認証フロー</text>
    
    <!-- Client App -->
    <g transform="translate(0, 30)">
      <rect width="120" height="80" rx="10" fill="#e8f4f8" stroke="#3498db" stroke-width="2"/>
      <text x="60" y="30" text-anchor="middle" font-size="14" font-weight="bold" fill="#2c3e50">クライアント</text>
      <text x="60" y="45" text-anchor="middle" font-size="12" fill="#2c3e50">アプリ</text>
    </g>
    
    <!-- Arrow 1 -->
    <path d="M170 370 L250 370" stroke="#3498db" stroke-width="2" marker-end="url(#arrowblue)"/>
    <text x="210" y="365" text-anchor="middle" font-size="10" fill="#3498db">OAuth要求</text>
    
    <!-- IdP -->
    <g transform="translate(250, 30)">
      <rect width="200" height="100" rx="10" fill="#f3e5f5" stroke="#9b59b6" stroke-width="3"/>
      <text x="100" y="25" text-anchor="middle" font-size="16" font-weight="bold" fill="#9b59b6">認証サーバー(IdP)</text>
      
      <!-- Passkey Support -->
      <rect x="20" y="40" width="160" height="50" rx="5" fill="#fff" stroke="#9b59b6"/>
      <text x="100" y="60" text-anchor="middle" font-size="12" fill="#9b59b6">パスキー対応</text>
      <text x="100" y="75" text-anchor="middle" font-size="10" fill="#666">WebAuthn RP</text>
    </g>
    
    <!-- Arrow 2 -->
    <path d="M500 370 L580 370" stroke="#9b59b6" stroke-width="2" marker-end="url(#arrowpurple)"/>
    <text x="540" y="365" text-anchor="middle" font-size="10" fill="#9b59b6">パスキー認証</text>
    
    <!-- Passkey Selection -->
    <g transform="translate(580, 30)">
      <rect width="200" height="150" rx="10" fill="#e8f5e9" stroke="#27ae60" stroke-width="2"/>
      <text x="100" y="25" text-anchor="middle" font-size="14" font-weight="bold" fill="#27ae60">パスキー選択</text>
      
      <!-- Options -->
      <rect x="20" y="40" width="160" height="25" rx="5" fill="#fff" stroke="#27ae60"/>
      <text x="100" y="55" text-anchor="middle" font-size="11" fill="#2c3e50">🍎 iPhone から</text>
      
      <rect x="20" y="70" width="160" height="25" rx="5" fill="#fff" stroke="#27ae60"/>
      <text x="100" y="85" text-anchor="middle" font-size="11" fill="#2c3e50">💻 このデバイス</text>
      
      <rect x="20" y="100" width="160" height="25" rx="5" fill="#fff" stroke="#27ae60"/>
      <text x="100" y="115" text-anchor="middle" font-size="11" fill="#2c3e50">🔐 セキュリティキー</text>
      
      <rect x="50" y="135" width="100" height="30" rx="5" fill="#27ae60"/>
      <text x="100" y="153" text-anchor="middle" font-size="12" fill="white">認証実行</text>
    </g>
  </g>
  
  <!-- Cross-Device Authentication -->
  <g transform="translate(50, 560)">
    <rect width="800" height="100" rx="10" fill="#fff3cd" stroke="#ff9800" stroke-width="2"/>
    <text x="400" y="25" text-anchor="middle" font-size="16" font-weight="bold" fill="#ff6f00">クロスデバイス認証</text>
    
    <!-- QR Code -->
    <g transform="translate(50, 40)">
      <rect width="40" height="40" fill="#000"/>
      <rect x="5" y="5" width="10" height="10" fill="#fff"/>
      <rect x="25" y="5" width="10" height="10" fill="#fff"/>
      <rect x="5" y="25" width="10" height="10" fill="#fff"/>
      <text x="50" y="30" font-size="12" fill="#666">QRコード</text>
    </g>
    
    <text x="150" y="50" font-size="20">→</text>
    
    <text x="200" y="50" font-size="12" fill="#666">スマートフォンでスキャン</text>
    
    <text x="350" y="50" font-size="20">→</text>
    
    <text x="400" y="50" font-size="12" fill="#666">生体認証で確認</text>
    
    <text x="520" y="50" font-size="20">→</text>
    
    <text x="570" y="50" font-size="12" fill="#27ae60" font-weight="bold">✅ PC でログイン完了</text>
  </g>
  
  <!-- Benefits -->
  <g transform="translate(550, 250)">
    <rect width="300" height="80" rx="10" fill="#e8f8f5" stroke="#16a085" stroke-width="2"/>
    <text x="150" y="25" text-anchor="middle" font-size="14" font-weight="bold" fill="#16a085">パスキーの利点</text>
    <text x="20" y="45" font-size="11" fill="#2c3e50">• デバイス間で自動同期</text>
    <text x="20" y="60" font-size="11" fill="#2c3e50">• バックアップ・復旧可能</text>
    <text x="20" y="75" font-size="11" fill="#2c3e50">• プラットフォーム横断的</text>
  </g>
  
  <!-- Arrow Definitions -->
  <defs>
    <marker id="arrowblue" markerWidth="10" markerHeight="10" refX="5" refY="5" orient="auto" fill="#3498db">
      <path d="M 0 0 L 10 5 L 0 10 z"/>
    </marker>
    <marker id="arrowpurple" markerWidth="10" markerHeight="10" refX="5" refY="5" orient="auto" fill="#9b59b6">
      <path d="M 0 0 L 10 5 L 0 10 z"/>
    </marker>
  </defs>
</svg>