<svg viewBox="0 0 900 800" xmlns="http://www.w3.org/2000/svg">
  <!-- Background -->
  <rect width="900" height="800" fill="#f8f9fa"/>
  
  <!-- Title -->
  <text x="450" y="35" text-anchor="middle" font-size="24" font-weight="bold" fill="#2c3e50">リスク評価エンジンアーキテクチャ</text>
  
  <!-- Data Collection Layer -->
  <g transform="translate(50, 80)">
    <rect width="800" height="150" rx="10" fill="#e8f4f8" stroke="#3498db" stroke-width="2"/>
    <text x="400" y="25" text-anchor="middle" font-size="16" font-weight="bold" fill="#3498db">データ収集レイヤー</text>
    
    <!-- Data Sources -->
    <g transform="translate(30, 40)">
      <!-- Device Fingerprint -->
      <rect width="170" height="70" rx="10" fill="#fff" stroke="#3498db"/>
      <text x="85" y="20" text-anchor="middle" font-size="12" font-weight="bold" fill="#2c3e50">デバイス特徴</text>
      <text x="10" y="40" font-size="10" fill="#666">• User-Agent</text>
      <text x="10" y="55" font-size="10" fill="#666">• Screen解像度</text>
      <text x="90" y="40" font-size="10" fill="#666">• Canvas指紋</text>
      <text x="90" y="55" font-size="10" fill="#666">• WebGL情報</text>
      
      <!-- Network Info -->
      <rect x="190" width="170" height="70" rx="10" fill="#fff" stroke="#3498db"/>
      <text x="275" y="20" text-anchor="middle" font-size="12" font-weight="bold" fill="#2c3e50">ネットワーク情報</text>
      <text x="200" y="40" font-size="10" fill="#666">• IPアドレス</text>
      <text x="200" y="55" font-size="10" fill="#666">• ASN/ISP</text>
      <text x="280" y="40" font-size="10" fill="#666">• Geolocation</text>
      <text x="280" y="55" font-size="10" fill="#666">• Proxy検出</text>
      
      <!-- User Behavior -->
      <rect x="380" width="170" height="70" rx="10" fill="#fff" stroke="#3498db"/>
      <text x="465" y="20" text-anchor="middle" font-size="12" font-weight="bold" fill="#2c3e50">ユーザー行動</text>
      <text x="390" y="40" font-size="10" fill="#666">• ログイン時刻</text>
      <text x="390" y="55" font-size="10" fill="#666">• 操作速度</text>
      <text x="470" y="40" font-size="10" fill="#666">• マウス動作</text>
      <text x="470" y="55" font-size="10" fill="#666">• タイピング</text>
      
      <!-- Historical Data -->
      <rect x="570" width="170" height="70" rx="10" fill="#fff" stroke="#3498db"/>
      <text x="655" y="20" text-anchor="middle" font-size="12" font-weight="bold" fill="#2c3e50">履歴データ</text>
      <text x="580" y="40" font-size="10" fill="#666">• 過去のログイン</text>
      <text x="580" y="55" font-size="10" fill="#666">• 成功/失敗率</text>
      <text x="660" y="40" font-size="10" fill="#666">• デバイス履歴</text>
      <text x="660" y="55" font-size="10" fill="#666">• 位置履歴</text>
    </g>
  </g>
  
  <!-- ML Processing Layer -->
  <g transform="translate(50, 250)">
    <rect width="800" height="200" rx="10" fill="#f3e5f5" stroke="#9b59b6" stroke-width="2"/>
    <text x="400" y="25" text-anchor="middle" font-size="16" font-weight="bold" fill="#9b59b6">機械学習処理レイヤー</text>
    
    <!-- Feature Engineering -->
    <g transform="translate(30, 40)">
      <rect width="230" height="130" rx="10" fill="#fff" stroke="#9b59b6"/>
      <text x="115" y="20" text-anchor="middle" font-size="12" font-weight="bold" fill="#9b59b6">特徴量エンジニアリング</text>
      
      <rect x="15" y="35" width="200" height="25" rx="5" fill="#f3e5f5"/>
      <text x="115" y="52" text-anchor="middle" font-size="10" fill="#666">デバイス異常度スコア</text>
      
      <rect x="15" y="65" width="200" height="25" rx="5" fill="#f3e5f5"/>
      <text x="115" y="82" text-anchor="middle" font-size="10" fill="#666">地理的距離/速度計算</text>
      
      <rect x="15" y="95" width="200" height="25" rx="5" fill="#f3e5f5"/>
      <text x="115" y="112" text-anchor="middle" font-size="10" fill="#666">時間帯異常検出</text>
    </g>
    
    <!-- ML Models -->
    <g transform="translate(280, 40)">
      <rect width="230" height="130" rx="10" fill="#fff" stroke="#9b59b6"/>
      <text x="115" y="20" text-anchor="middle" font-size="12" font-weight="bold" fill="#9b59b6">MLモデル群</text>
      
      <!-- Model 1 -->
      <rect x="15" y="35" width="90" height="35" rx="5" fill="#e8f5e9" stroke="#27ae60"/>
      <text x="60" y="48" text-anchor="middle" font-size="9" fill="#27ae60">異常検出</text>
      <text x="60" y="60" text-anchor="middle" font-size="8" fill="#666">Isolation Forest</text>
      
      <!-- Model 2 -->
      <rect x="115" y="35" width="90" height="35" rx="5" fill="#e8f4f8" stroke="#3498db"/>
      <text x="160" y="48" text-anchor="middle" font-size="9" fill="#3498db">分類モデル</text>
      <text x="160" y="60" text-anchor="middle" font-size="8" fill="#666">Random Forest</text>
      
      <!-- Model 3 -->
      <rect x="15" y="80" width="90" height="35" rx="5" fill="#fff3cd" stroke="#f39c12"/>
      <text x="60" y="93" text-anchor="middle" font-size="9" fill="#f39c12">時系列分析</text>
      <text x="60" y="105" text-anchor="middle" font-size="8" fill="#666">LSTM</text>
      
      <!-- Model 4 -->
      <rect x="115" y="80" width="90" height="35" rx="5" fill="#fee" stroke="#e74c3c"/>
      <text x="160" y="93" text-anchor="middle" font-size="9" fill="#e74c3c">クラスタリング</text>
      <text x="160" y="105" text-anchor="middle" font-size="8" fill="#666">DBSCAN</text>
    </g>
    
    <!-- Ensemble -->
    <g transform="translate(540, 40)">
      <rect width="200" height="130" rx="10" fill="#fff" stroke="#9b59b6"/>
      <text x="100" y="20" text-anchor="middle" font-size="12" font-weight="bold" fill="#9b59b6">アンサンブル</text>
      
      <circle cx="100" cy="70" r="40" fill="#f3e5f5" stroke="#9b59b6" stroke-width="2"/>
      <text x="100" y="65" text-anchor="middle" font-size="10" fill="#9b59b6">重み付き</text>
      <text x="100" y="78" text-anchor="middle" font-size="10" fill="#9b59b6">統合スコア</text>
      
      <text x="100" y="110" text-anchor="middle" font-size="16" font-weight="bold" fill="#9b59b6">0-100</text>
    </g>
  </g>
  
  <!-- Decision Engine -->
  <g transform="translate(50, 470)">
    <rect width="800" height="150" rx="10" fill="#fee" stroke="#e74c3c" stroke-width="2"/>
    <text x="400" y="25" text-anchor="middle" font-size="16" font-weight="bold" fill="#e74c3c">意思決定エンジン</text>
    
    <!-- Rules -->
    <g transform="translate(30, 40)">
      <rect width="350" height="80" rx="10" fill="#fff" stroke="#e74c3c"/>
      <text x="175" y="20" text-anchor="middle" font-size="12" font-weight="bold" fill="#e74c3c">ルールベース判定</text>
      
      <text x="15" y="40" font-size="10" fill="#666">IF リスクスコア > 70 AND 新規デバイス</text>
      <text x="25" y="55" font-size="10" fill="#e74c3c">→ 強制的に追加認証を要求</text>
      
      <text x="15" y="75" font-size="10" fill="#666">IF 地理的異常 AND 高額取引</text>
      <text x="25" y="90" font-size="10" fill="#e74c3c">→ トランザクションを一時停止</text>
    </g>
    
    <!-- Actions -->
    <g transform="translate(420, 40)">
      <rect width="350" height="80" rx="10" fill="#fff" stroke="#e74c3c"/>
      <text x="175" y="20" text-anchor="middle" font-size="12" font-weight="bold" fill="#e74c3c">アクション決定</text>
      
      <rect x="20" y="35" width="100" height="30" rx="5" fill="#27ae60"/>
      <text x="70" y="53" text-anchor="middle" font-size="10" fill="white">許可</text>
      
      <rect x="130" y="35" width="100" height="30" rx="5" fill="#f39c12"/>
      <text x="180" y="53" text-anchor="middle" font-size="10" fill="white">追加認証</text>
      
      <rect x="240" y="35" width="100" height="30" rx="5" fill="#e74c3c"/>
      <text x="290" y="53" text-anchor="middle" font-size="10" fill="white">ブロック</text>
    </g>
  </g>
  
  <!-- Real-time Feedback -->
  <g transform="translate(50, 640)">
    <rect width="800" height="120" rx="10" fill="#e8f8f5" stroke="#16a085" stroke-width="2"/>
    <text x="400" y="25" text-anchor="middle" font-size="16" font-weight="bold" fill="#16a085">リアルタイムフィードバック</text>
    
    <g transform="translate(50, 40)">
      <!-- Feedback Loop -->
      <path d="M0 30 Q100 10 200 30 T400 30 Q500 10 600 30 T700 30" 
            fill="none" stroke="#16a085" stroke-width="2"/>
      
      <circle cx="0" cy="30" r="5" fill="#16a085"/>
      <text x="0" y="55" text-anchor="middle" font-size="10" fill="#666">イベント発生</text>
      
      <circle cx="200" cy="30" r="5" fill="#16a085"/>
      <text x="200" y="55" text-anchor="middle" font-size="10" fill="#666">リスク評価</text>
      
      <circle cx="400" cy="30" r="5" fill="#16a085"/>
      <text x="400" y="55" text-anchor="middle" font-size="10" fill="#666">アクション実行</text>
      
      <circle cx="600" cy="30" r="5" fill="#16a085"/>
      <text x="600" y="55" text-anchor="middle" font-size="10" fill="#666">結果記録</text>
      
      <circle cx="700" cy="30" r="5" fill="#16a085"/>
      <text x="700" y="10" text-anchor="middle" font-size="10" fill="#666">モデル更新</text>
    </g>
  </g>
</svg>