<svg viewBox="0 0 900 800" xmlns="http://www.w3.org/2000/svg">
  <!-- Background -->
  <rect width="900" height="800" fill="#f8f9fa"/>
  
  <!-- Title -->
  <text x="450" y="35" text-anchor="middle" font-size="24" font-weight="bold" fill="#2c3e50">MFA強制実装フロー</text>
  
  <!-- Sequence Diagram -->
  <g transform="translate(50, 80)">
    <!-- Participants -->
    <rect x="0" y="0" width="120" height="40" rx="5" fill="#3498db"/>
    <text x="60" y="25" text-anchor="middle" font-size="12" fill="white">リソース</text>
    <text x="60" y="38" text-anchor="middle" font-size="10" fill="white">サーバー</text>
    
    <rect x="200" y="0" width="120" height="40" rx="5" fill="#e74c3c"/>
    <text x="260" y="25" text-anchor="middle" font-size="12" fill="white">クライアント</text>
    <text x="260" y="38" text-anchor="middle" font-size="10" fill="white">アプリ</text>
    
    <rect x="400" y="0" width="120" height="40" rx="5" fill="#9b59b6"/>
    <text x="460" y="25" text-anchor="middle" font-size="12" fill="white">認証サーバー</text>
    <text x="460" y="38" text-anchor="middle" font-size="10" fill="white">(IdP)</text>
    
    <rect x="600" y="0" width="120" height="40" rx="5" fill="#27ae60"/>
    <text x="660" y="25" text-anchor="middle" font-size="12" fill="white">ユーザー</text>
    
    <!-- Lifelines -->
    <line x1="60" y1="40" x2="60" y2="700" stroke="#ddd" stroke-width="2"/>
    <line x1="260" y1="40" x2="260" y2="700" stroke="#ddd" stroke-width="2"/>
    <line x1="460" y1="40" x2="460" y2="700" stroke="#ddd" stroke-width="2"/>
    <line x1="660" y1="40" x2="660" y2="700" stroke="#ddd" stroke-width="2"/>
    
    <!-- Step 1: Resource Request -->
    <g transform="translate(0, 60)">
      <path d="M260 0 L60 0" stroke="#3498db" stroke-width="2" marker-end="url(#arrowblue)"/>
      <text x="160" y="-5" text-anchor="middle" font-size="10" fill="#3498db">1. リソースアクセス要求</text>
    </g>
    
    <!-- Step 2: Check Token -->
    <g transform="translate(0, 100)">
      <rect x="20" y="-15" width="80" height="30" rx="5" fill="#e8f4f8" stroke="#3498db"/>
      <text x="60" y="5" text-anchor="middle" font-size="9" fill="#3498db">トークン検証</text>
      
      <path d="M60 20 L260 20" stroke="#e74c3c" stroke-width="2" marker-end="url(#arrowred)"/>
      <text x="160" y="15" text-anchor="middle" font-size="10" fill="#e74c3c">2. MFA不足エラー</text>
      
      <!-- Error Details -->
      <rect x="270" y="5" width="180" height="60" rx="5" fill="#fee" stroke="#e74c3c"/>
      <text x="360" y="20" text-anchor="middle" font-size="9" fill="#666">HTTP 403</text>
      <text x="360" y="33" text-anchor="middle" font-size="9" fill="#666">insufficient_auth_level</text>
      <text x="360" y="46" text-anchor="middle" font-size="9" fill="#666">required_acr: "mfa"</text>
    </g>
    
    <!-- Step 3: OAuth with ACR -->
    <g transform="translate(0, 200)">
      <path d="M260 0 L460 0" stroke="#9b59b6" stroke-width="2" marker-end="url(#arrowpurple)"/>
      <text x="360" y="-5" text-anchor="middle" font-size="10" fill="#9b59b6">3. 認証要求 (ACR付き)</text>
      
      <!-- ACR Request -->
      <rect x="280" y="10" width="160" height="70" rx="5" fill="#f3e5f5" stroke="#9b59b6"/>
      <text x="360" y="25" text-anchor="middle" font-size="9" font-weight="bold" fill="#9b59b6">認証パラメータ</text>
      <text x="290" y="40" font-size="8" fill="#666">response_type=code</text>
      <text x="290" y="52" font-size="8" fill="#666">scope=openid profile</text>
      <text x="290" y="64" font-size="8" fill="#e74c3c" font-weight="bold">acr_values=mfa</text>
    </g>
    
    <!-- Step 4: Check Current Auth -->
    <g transform="translate(0, 300)">
      <rect x="420" y="-15" width="80" height="30" rx="5" fill="#f3e5f5" stroke="#9b59b6"/>
      <text x="460" y="5" text-anchor="middle" font-size="9" fill="#9b59b6">認証状態確認</text>
      
      <path d="M460 20 L660 20" stroke="#27ae60" stroke-width="2" marker-end="url(#arrowgreen)"/>
      <text x="560" y="15" text-anchor="middle" font-size="10" fill="#27ae60">4. MFA要求画面</text>
    </g>
    
    <!-- MFA Options -->
    <g transform="translate(580, 330)">
      <rect width="160" height="120" rx="10" fill="#e8f5e9" stroke="#27ae60" stroke-width="2"/>
      <text x="80" y="20" text-anchor="middle" font-size="11" font-weight="bold" fill="#27ae60">MFA選択</text>
      
      <rect x="15" y="35" width="130" height="20" rx="5" fill="#fff" stroke="#27ae60"/>
      <text x="80" y="48" text-anchor="middle" font-size="9" fill="#666">📱 SMS: ****1234</text>
      
      <rect x="15" y="60" width="130" height="20" rx="5" fill="#fff" stroke="#27ae60"/>
      <text x="80" y="73" text-anchor="middle" font-size="9" fill="#666">🔐 認証アプリ</text>
      
      <rect x="15" y="85" width="130" height="20" rx="5" fill="#27ae60"/>
      <text x="80" y="98" text-anchor="middle" font-size="9" fill="white">👆 パスキー</text>
    </g>
    
    <!-- Step 5: MFA Execution -->
    <g transform="translate(0, 470)">
      <path d="M660 0 L460 0" stroke="#27ae60" stroke-width="2" marker-end="url(#arrowgreen)"/>
      <text x="560" y="-5" text-anchor="middle" font-size="10" fill="#27ae60">5. MFA実行</text>
    </g>
    
    <!-- Step 6: ID Token with AMR -->
    <g transform="translate(0, 510)">
      <path d="M460 0 L260 0" stroke="#16a085" stroke-width="2" marker-end="url(#arrowteal)"/>
      <text x="360" y="-5" text-anchor="middle" font-size="10" fill="#16a085">6. 認証コード + ID Token</text>
      
      <!-- ID Token Claims -->
      <rect x="270" y="10" width="180" height="100" rx="5" fill="#e8f8f5" stroke="#16a085"/>
      <text x="360" y="25" text-anchor="middle" font-size="9" font-weight="bold" fill="#16a085">ID Token Claims</text>
      <text x="280" y="40" font-size="8" font-family="monospace" fill="#666">{</text>
      <text x="285" y="52" font-size="8" font-family="monospace" fill="#666">  "sub": "user123",</text>
      <text x="285" y="64" font-size="8" font-family="monospace" fill="#16a085">  "acr": "mfa",</text>
      <text x="285" y="76" font-size="8" font-family="monospace" fill="#16a085">  "amr": ["pwd","otp"],</text>
      <text x="285" y="88" font-size="8" font-family="monospace" fill="#666">  "auth_time": 1234567</text>
      <text x="280" y="100" font-size="8" font-family="monospace" fill="#666">}</text>
    </g>
    
    <!-- Step 7: Token Exchange -->
    <g transform="translate(0, 630)">
      <path d="M260 0 L60 0" stroke="#2ecc71" stroke-width="2" marker-end="url(#arrowgreen2)"/>
      <text x="160" y="-5" text-anchor="middle" font-size="10" fill="#2ecc71">7. トークン付きリクエスト</text>
      
      <rect x="70" y="5" width="80" height="30" rx="5" fill="#e8f5e9" stroke="#27ae60"/>
      <text x="110" y="23" text-anchor="middle" font-size="9" fill="#27ae60">MFA検証OK</text>
    </g>
  </g>
  
  <!-- Policy Decision Point -->
  <g transform="translate(50, 50)">
    <rect x="750" y="100" width="120" height="600" rx="10" fill="#f8f9fa" stroke="#666" stroke-width="2"/>
    <text x="810" y="125" text-anchor="middle" font-size="12" font-weight="bold" fill="#666">ポリシー判定</text>
    
    <!-- Decision Rules -->
    <g transform="translate(760, 150)">
      <rect width="100" height="60" rx="5" fill="#fff" stroke="#666"/>
      <text x="50" y="15" text-anchor="middle" font-size="9" fill="#666">リソース:</text>
      <text x="50" y="28" text-anchor="middle" font-size="9" fill="#e74c3c">/api/payment</text>
      <text x="50" y="41" text-anchor="middle" font-size="9" fill="#666">必要ACR:</text>
      <text x="50" y="54" text-anchor="middle" font-size="9" fill="#e74c3c" font-weight="bold">mfa</text>
    </g>
    
    <g transform="translate(760, 250)">
      <rect width="100" height="60" rx="5" fill="#e8f5e9" stroke="#27ae60"/>
      <text x="50" y="20" text-anchor="middle" font-size="9" fill="#27ae60">ユーザー認証:</text>
      <text x="50" y="35" text-anchor="middle" font-size="9" fill="#666">pwd + otp</text>
      <text x="50" y="50" text-anchor="middle" font-size="9" fill="#27ae60" font-weight="bold">✓ MFA達成</text>
    </g>
  </g>
  
  <!-- Arrow Definitions -->
  <defs>
    <marker id="arrowblue" markerWidth="10" markerHeight="10" refX="5" refY="5" orient="auto" fill="#3498db">
      <path d="M 0 0 L 10 5 L 0 10 z"/>
    </marker>
    <marker id="arrowred" markerWidth="10" markerHeight="10" refX="5" refY="5" orient="auto" fill="#e74c3c">
      <path d="M 0 0 L 10 5 L 0 10 z"/>
    </marker>
    <marker id="arrowpurple" markerWidth="10" markerHeight="10" refX="5" refY="5" orient="auto" fill="#9b59b6">
      <path d="M 0 0 L 10 5 L 0 10 z"/>
    </marker>
    <marker id="arrowgreen" markerWidth="10" markerHeight="10" refX="5" refY="5" orient="auto" fill="#27ae60">
      <path d="M 0 0 L 10 5 L 0 10 z"/>
    </marker>
    <marker id="arrowteal" markerWidth="10" markerHeight="10" refX="5" refY="5" orient="auto" fill="#16a085">
      <path d="M 0 0 L 10 5 L 0 10 z"/>
    </marker>
    <marker id="arrowgreen2" markerWidth="10" markerHeight="10" refX="5" refY="5" orient="auto" fill="#2ecc71">
      <path d="M 0 0 L 10 5 L 0 10 z"/>
    </marker>
  </defs>
</svg>