<svg viewBox="0 0 800 500" xmlns="http://www.w3.org/2000/svg">
  <!-- Background -->
  <rect width="800" height="500" fill="#f8f9fa"/>
  
  <!-- Title -->
  <text x="400" y="40" text-anchor="middle" font-size="22" font-weight="bold" fill="#2c3e50">フィンガープリント生成フロー</text>
  
  <!-- Input Data Section -->
  <g transform="translate(50, 80)">
    <text x="150" y="0" text-anchor="middle" font-size="16" font-weight="bold" fill="#2c3e50">認可リクエスト情報</text>
    
    <!-- Data Boxes -->
    <rect x="20" y="20" width="120" height="40" rx="5" fill="#e3f2fd" stroke="#2196f3" stroke-width="2"/>
    <text x="80" y="45" text-anchor="middle" font-size="12" fill="#1565c0">クライアントID</text>
    
    <rect x="160" y="20" width="120" height="40" rx="5" fill="#e8f5e9" stroke="#4caf50" stroke-width="2"/>
    <text x="220" y="45" text-anchor="middle" font-size="12" fill="#2e7d32">ユーザーID</text>
    
    <rect x="20" y="80" width="120" height="40" rx="5" fill="#fff3e0" stroke="#ff9800" stroke-width="2"/>
    <text x="80" y="105" text-anchor="middle" font-size="12" fill="#e65100">スコープ</text>
    
    <rect x="160" y="80" width="120" height="40" rx="5" fill="#fce4ec" stroke="#e91e63" stroke-width="2"/>
    <text x="220" y="105" text-anchor="middle" font-size="12" fill="#880e4f">詳細情報</text>
    
    <rect x="90" y="140" width="120" height="40" rx="5" fill="#f3e5f5" stroke="#9c27b0" stroke-width="2"/>
    <text x="150" y="165" text-anchor="middle" font-size="12" fill="#4a148c">タイムスタンプ</text>
  </g>
  
  <!-- Concatenation Arrow -->
  <g transform="translate(330, 130)">
    <path d="M0 0 L50 0" stroke="#666" stroke-width="3" marker-end="url(#arrowgray)"/>
    <text x="25" y="-10" text-anchor="middle" font-size="12" fill="#666">結合</text>
  </g>
  
  <!-- Combined Data -->
  <g transform="translate(400, 100)">
    <rect width="150" height="80" rx="10" fill="#fff" stroke="#666" stroke-width="2"/>
    <text x="75" y="25" text-anchor="middle" font-size="14" font-weight="bold" fill="#2c3e50">結合データ</text>
    <text x="10" y="45" font-size="10" fill="#555">client_123|user_456|</text>
    <text x="10" y="60" font-size="10" fill="#555">scope1,scope2|details|</text>
    <text x="10" y="75" font-size="10" fill="#555">1640995200000</text>
  </g>
  
  <!-- Hash Arrow -->
  <g transform="translate(470, 200)">
    <path d="M0 0 L0 40" stroke="#e74c3c" stroke-width="3" marker-end="url(#arrowred)"/>
    <text x="20" y="20" font-size="12" fill="#e74c3c">SHA-256</text>
  </g>
  
  <!-- Hash Process -->
  <g transform="translate(380, 250)">
    <rect width="190" height="60" rx="10" fill="#fee" stroke="#e74c3c" stroke-width="2"/>
    <text x="95" y="25" text-anchor="middle" font-size="14" font-weight="bold" fill="#c0392b">ハッシュ処理</text>
    <rect x="20" y="35" width="150" height="15" rx="3" fill="#e74c3c"/>
    <rect x="20" y="35" width="75" height="15" rx="3" fill="#c0392b">
      <animate attributeName="width" from="0" to="75" dur="2s" repeatCount="indefinite"/>
    </rect>
  </g>
  
  <!-- Result Arrow -->
  <g transform="translate(470, 320)">
    <path d="M0 0 L0 40" stroke="#27ae60" stroke-width="3" marker-end="url(#arrowgreen)"/>
  </g>
  
  <!-- Fingerprint Result -->
  <g transform="translate(350, 370)">
    <rect width="250" height="80" rx="10" fill="#e8f5e9" stroke="#27ae60" stroke-width="3"/>
    <text x="125" y="25" text-anchor="middle" font-size="16" font-weight="bold" fill="#27ae60">フィンガープリント</text>
    <rect x="20" y="40" width="210" height="25" rx="5" fill="#fff"/>
    <text x="125" y="57" text-anchor="middle" font-size="11" font-family="monospace" fill="#2c3e50">
      a1b2c3d4e5f6...9876543210
    </text>
  </g>
  
  <!-- Benefits -->
  <g transform="translate(50, 300)">
    <rect width="250" height="120" rx="10" fill="#f8f9fa" stroke="#3498db" stroke-width="2"/>
    <text x="125" y="25" text-anchor="middle" font-size="14" font-weight="bold" fill="#2980b9">セキュリティ効果</text>
    
    <g transform="translate(20, 40)">
      <circle cx="10" cy="5" r="4" fill="#27ae60"/>
      <text x="20" y="10" font-size="12" fill="#2c3e50">認可の一意性を保証</text>
    </g>
    
    <g transform="translate(20, 60)">
      <circle cx="10" cy="5" r="4" fill="#27ae60"/>
      <text x="20" y="10" font-size="12" fill="#2c3e50">改ざん検知が可能</text>
    </g>
    
    <g transform="translate(20, 80)">
      <circle cx="10" cy="5" r="4" fill="#27ae60"/>
      <text x="20" y="10" font-size="12" fill="#2c3e50">後から検証可能</text>
    </g>
  </g>
  
  <!-- Arrow Definitions -->
  <defs>
    <marker id="arrowgray" markerWidth="10" markerHeight="10" refX="5" refY="5" orient="auto" fill="#666">
      <path d="M 0 0 L 10 5 L 0 10 z"/>
    </marker>
    <marker id="arrowred" markerWidth="10" markerHeight="10" refX="5" refY="5" orient="auto" fill="#e74c3c">
      <path d="M 0 0 L 10 5 L 0 10 z"/>
    </marker>
    <marker id="arrowgreen" markerWidth="10" markerHeight="10" refX="5" refY="5" orient="auto" fill="#27ae60">
      <path d="M 0 0 L 10 5 L 0 10 z"/>
    </marker>
  </defs>
</svg>