<svg viewBox="0 0 800 600" xmlns="http://www.w3.org/2000/svg">
  <!-- Background -->
  <rect width="800" height="600" fill="#f8f9fa"/>
  
  <!-- Title -->
  <text x="400" y="35" text-anchor="middle" font-size="22" font-weight="bold" fill="#2c3e50">コンテキストベース認可検証</text>
  
  <!-- Authorization Request -->
  <g transform="translate(350, 70)">
    <rect width="100" height="40" rx="20" fill="#3498db"/>
    <text x="50" y="25" text-anchor="middle" font-size="12" fill="white">認可リクエスト</text>
  </g>
  
  <!-- Arrow down -->
  <path d="M400 110 L400 140" stroke="#3498db" stroke-width="3" marker-end="url(#arrowblue)"/>
  
  <!-- Context Collection Box -->
  <g transform="translate(250, 150)">
    <rect width="300" height="100" rx="10" fill="#fff" stroke="#3498db" stroke-width="2"/>
    <text x="150" y="25" text-anchor="middle" font-size="16" font-weight="bold" fill="#2c3e50">コンテキスト収集</text>
    
    <!-- Context Items -->
    <g transform="translate(20, 40)">
      <!-- Device -->
      <rect x="0" y="0" width="40" height="40" rx="5" fill="#e8f4f8"/>
      <text x="20" y="25" text-anchor="middle" font-size="20">📱</text>
      <text x="20" y="50" text-anchor="middle" font-size="10" fill="#555">デバイス</text>
      
      <!-- Location -->
      <rect x="70" y="0" width="40" height="40" rx="5" fill="#fee"/>
      <text x="90" y="25" text-anchor="middle" font-size="20">📍</text>
      <text x="90" y="50" text-anchor="middle" font-size="10" fill="#555">位置</text>
      
      <!-- Time -->
      <rect x="140" y="0" width="40" height="40" rx="5" fill="#fff3cd"/>
      <text x="160" y="25" text-anchor="middle" font-size="20">⏰</text>
      <text x="160" y="50" text-anchor="middle" font-size="10" fill="#555">時間</text>
      
      <!-- Network -->
      <rect x="210" y="0" width="40" height="40" rx="5" fill="#e8f5e9"/>
      <text x="230" y="25" text-anchor="middle" font-size="20">🌐</text>
      <text x="230" y="50" text-anchor="middle" font-size="10" fill="#555">ネット</text>
    </g>
  </g>
  
  <!-- Arrow down -->
  <path d="M400 250 L400 280" stroke="#3498db" stroke-width="3" marker-end="url(#arrowblue)"/>
  
  <!-- Risk Assessment -->
  <g transform="translate(200, 290)">
    <rect width="400" height="150" rx="10" fill="#fff" stroke="#f39c12" stroke-width="2"/>
    <text x="200" y="25" text-anchor="middle" font-size="16" font-weight="bold" fill="#2c3e50">リスクスコア計算</text>
    
    <!-- Check Items -->
    <g transform="translate(30, 40)">
      <!-- Device Check -->
      <rect x="0" y="0" width="160" height="30" rx="5" fill="#e8f5e9"/>
      <text x="10" y="20" font-size="12" fill="#27ae60">✓ 既知のデバイス</text>
      <text x="130" y="20" font-size="12" fill="#27ae60">+0</text>
      
      <!-- Location Check -->
      <rect x="0" y="35" width="160" height="30" rx="5" fill="#fff3cd"/>
      <text x="10" y="55" font-size="12" fill="#f39c12">⚠ 新しい場所</text>
      <text x="130" y="55" font-size="12" fill="#f39c12">+3</text>
      
      <!-- Time Check -->
      <rect x="200" y="0" width="160" height="30" rx="5" fill="#e8f5e9"/>
      <text x="210" y="20" font-size="12" fill="#27ae60">✓ 通常の時間帯</text>
      <text x="330" y="20" font-size="12" fill="#27ae60">+0</text>
      
      <!-- Network Check -->
      <rect x="200" y="35" width="160" height="30" rx="5" fill="#fee"/>
      <text x="210" y="55" font-size="12" fill="#e74c3c">✗ 公共WiFi</text>
      <text x="330" y="55" font-size="12" fill="#e74c3c">+5</text>
    </g>
    
    <!-- Total Score -->
    <rect x="100" y="110" width="200" height="25" rx="12" fill="#f39c12"/>
    <text x="200" y="127" text-anchor="middle" font-size="14" fill="white" font-weight="bold">リスクスコア: 8/10 (中)</text>
  </g>
  
  <!-- Decision Branches -->
  <g transform="translate(100, 460)">
    <!-- Low Risk -->
    <g transform="translate(0, 0)">
      <rect width="180" height="80" rx="10" fill="#e8f5e9" stroke="#27ae60" stroke-width="2"/>
      <text x="90" y="25" text-anchor="middle" font-size="14" font-weight="bold" fill="#27ae60">低リスク (0-3)</text>
      <text x="90" y="45" text-anchor="middle" font-size="20">✅</text>
      <text x="90" y="65" text-anchor="middle" font-size="12" fill="#2c3e50">通常通り許可</text>
    </g>
    
    <!-- Medium Risk -->
    <g transform="translate(210, 0)">
      <rect width="180" height="80" rx="10" fill="#fff3cd" stroke="#f39c12" stroke-width="2"/>
      <text x="90" y="25" text-anchor="middle" font-size="14" font-weight="bold" fill="#f39c12">中リスク (4-7)</text>
      <text x="90" y="45" text-anchor="middle" font-size="20">🔐</text>
      <text x="90" y="65" text-anchor="middle" font-size="12" fill="#2c3e50">追加認証要求</text>
    </g>
    
    <!-- High Risk -->
    <g transform="translate(420, 0)">
      <rect width="180" height="80" rx="10" fill="#fee" stroke="#e74c3c" stroke-width="2"/>
      <text x="90" y="25" text-anchor="middle" font-size="14" font-weight="bold" fill="#e74c3c">高リスク (8-10)</text>
      <text x="90" y="45" text-anchor="middle" font-size="20">🚫</text>
      <text x="90" y="65" text-anchor="middle" font-size="12" fill="#2c3e50">認可拒否</text>
    </g>
  </g>
  
  <!-- Current Case Arrow -->
  <path d="M400 440 L490 460" stroke="#f39c12" stroke-width="3" marker-end="url(#arroworange)"/>
  
  <!-- Arrow Definitions -->
  <defs>
    <marker id="arrowblue" markerWidth="10" markerHeight="10" refX="5" refY="5" orient="auto" fill="#3498db">
      <path d="M 0 0 L 10 5 L 0 10 z"/>
    </marker>
    <marker id="arroworange" markerWidth="10" markerHeight="10" refX="5" refY="5" orient="auto" fill="#f39c12">
      <path d="M 0 0 L 10 5 L 0 10 z"/>
    </marker>
  </defs>
</svg>