<svg xmlns="http://www.w3.org/2000/svg" viewBox="0 0 1000 700" style="background-color: #f8f9fa;">
  <!-- Title -->
  <text x="500" y="30" text-anchor="middle" font-size="24" font-weight="bold" fill="#1a365d">鍵のライフサイクル管理</text>
  
  <!-- Lifecycle Phases -->
  <g id="phases">
    <!-- 1. Generation -->
    <g transform="translate(100, 80)">
      <circle cx="50" cy="50" r="50" fill="#dbeafe" stroke="#3b82f6" stroke-width="3"/>
      <text x="50" y="55" text-anchor="middle" font-size="16" font-weight="bold">1. 生成</text>
      <rect x="-50" y="120" width="200" height="100" fill="#eff6ff" stroke="#3b82f6" rx="5"/>
      <text x="50" y="140" text-anchor="middle" font-size="14" font-weight="bold">要件</text>
      <text x="-40" y="160" font-size="12">• 暗号学的乱数生成器</text>
      <text x="-40" y="175" font-size="12">• RSA: 2048bit以上</text>
      <text x="-40" y="190" font-size="12">• EC: P-256以上</text>
      <text x="-40" y="205" font-size="12">• HSM内生成推奨</text>
    </g>
    
    <!-- 2. Storage -->
    <g transform="translate(300, 80)">
      <circle cx="50" cy="50" r="50" fill="#dcfce7" stroke="#22c55e" stroke-width="3"/>
      <text x="50" y="55" text-anchor="middle" font-size="16" font-weight="bold">2. 保管</text>
      <rect x="-50" y="120" width="200" height="120" fill="#f0fdf4" stroke="#22c55e" rx="5"/>
      <text x="50" y="140" text-anchor="middle" font-size="14" font-weight="bold">推奨</text>
      <text x="-40" y="160" font-size="12">• HSM (FIPS 140-2)</text>
      <text x="-40" y="175" font-size="12">• KMS (AWS/Azure/GCP)</text>
      <text x="50" y="195" text-anchor="middle" font-size="14" font-weight="bold" fill="#dc2626">禁止</text>
      <text x="-40" y="215" font-size="12" fill="#dc2626">✗ ソースコード内</text>
      <text x="-40" y="230" font-size="12" fill="#dc2626">✗ 平文設定ファイル</text>
    </g>
    
    <!-- 3. Usage -->
    <g transform="translate(500, 80)">
      <circle cx="50" cy="50" r="50" fill="#e0e7ff" stroke="#6366f1" stroke-width="3"/>
      <text x="50" y="55" text-anchor="middle" font-size="16" font-weight="bold">3. 使用</text>
      <rect x="-50" y="120" width="200" height="85" fill="#f5f3ff" stroke="#6366f1" rx="5"/>
      <text x="50" y="140" text-anchor="middle" font-size="14" font-weight="bold">原則</text>
      <text x="-40" y="160" font-size="12">• 最小権限の原則</text>
      <text x="-40" y="175" font-size="12">• 使用履歴の記録</text>
      <text x="-40" y="190" font-size="12">• 異常使用の検知</text>
    </g>
    
    <!-- 4. Rotation -->
    <g transform="translate(700, 80)">
      <circle cx="50" cy="50" r="50" fill="#fef3c7" stroke="#f59e0b" stroke-width="3"/>
      <text x="50" y="45" text-anchor="middle" font-size="14" font-weight="bold">4. ローテー</text>
      <text x="50" y="65" text-anchor="middle" font-size="14" font-weight="bold">ション</text>
      <rect x="-50" y="120" width="200" height="100" fill="#fffbeb" stroke="#f59e0b" rx="5"/>
      <text x="50" y="140" text-anchor="middle" font-size="14" font-weight="bold">手順</text>
      <text x="-40" y="160" font-size="12">• 定期更新 (90日)</text>
      <text x="-40" y="175" font-size="12">• Phase 1: 新鍵追加</text>
      <text x="-40" y="190" font-size="12">• Phase 2: 切り替え</text>
      <text x="-40" y="205" font-size="12">• Phase 3: 旧鍵無効化</text>
    </g>
    
    <!-- 5. Disposal -->
    <g transform="translate(400, 350)">
      <circle cx="50" cy="50" r="50" fill="#fee2e2" stroke="#ef4444" stroke-width="3"/>
      <text x="50" y="55" text-anchor="middle" font-size="16" font-weight="bold">5. 廃棄</text>
      <rect x="-50" y="120" width="200" height="85" fill="#fef2f2" stroke="#ef4444" rx="5"/>
      <text x="50" y="140" text-anchor="middle" font-size="14" font-weight="bold">手順</text>
      <text x="-40" y="160" font-size="12">• 安全な削除 (ゼロ埋め)</text>
      <text x="-40" y="175" font-size="12">• バックアップも削除</text>
      <text x="-40" y="190" font-size="12">• 廃棄証跡の記録</text>
    </g>
  </g>
  
  <!-- Arrows -->
  <defs>
    <marker id="arrowblack" markerWidth="10" markerHeight="10" refX="9" refY="3" orient="auto" markerUnits="strokeWidth">
      <path d="M0,0 L0,6 L9,3 z" fill="#374151"/>
    </marker>
  </defs>
  
  <!-- Flow arrows -->
  <path d="M 200 130 L 290 130" stroke="#374151" stroke-width="2" marker-end="url(#arrowblack)"/>
  <path d="M 400 130 L 490 130" stroke="#374151" stroke-width="2" marker-end="url(#arrowblack)"/>
  <path d="M 600 130 L 690 130" stroke="#374151" stroke-width="2" marker-end="url(#arrowblack)"/>
  <path d="M 750 180 Q 750 300 550 400" stroke="#374151" stroke-width="2" marker-end="url(#arrowblack)" fill="none"/>
  
  <!-- Emergency rotation path -->
  <path d="M 550 180 Q 650 250 650 330 Q 650 380 550 380" stroke="#dc2626" stroke-width="2" stroke-dasharray="5,5" marker-end="url(#arrowblack)" fill="none"/>
  <text x="680" y="280" font-size="12" fill="#dc2626">緊急時</text>
</svg>