<svg xmlns="http://www.w3.org/2000/svg" viewBox="0 0 800 400">
  <!-- 背景 -->
  <rect width="800" height="400" fill="#f8f9fa" />

  <!-- タイトル -->
  <text x="400" y="40" font-family="Arial, sans-serif" font-size="24" font-weight="bold" text-anchor="middle">GRU (Gated
    Recurrent Unit) の基本構造</text>

  <!-- GRUセル全体 -->
  <rect x="100" y="80" width="600" height="240" rx="10" fill="#dbeafe" stroke="#3b82f6" stroke-width="2" />
  <text x="400" y="105" font-family="Arial, sans-serif" font-size="18" font-weight="bold" text-anchor="middle"
    fill="#3b82f6">GRUセル</text>

  <!-- 更新ゲート -->
  <rect x="200" y="140" width="80" height="80" rx="40" fill="#ffedd5" stroke="#c2410c" stroke-width="2" />
  <text x="240" y="180" font-family="Arial, sans-serif" font-size="16" font-weight="bold" text-anchor="middle"
    fill="#c2410c">z_t</text>
  <text x="240" y="200" font-family="Arial, sans-serif" font-size="12" text-anchor="middle" fill="#c2410c">更新ゲート</text>

  <!-- リセットゲート -->
  <rect x="350" y="140" width="80" height="80" rx="40" fill="#dcfce7" stroke="#22c55e" stroke-width="2" />
  <text x="390" y="180" font-family="Arial, sans-serif" font-size="16" font-weight="bold" text-anchor="middle"
    fill="#22c55e">r_t</text>
  <text x="390" y="200" font-family="Arial, sans-serif" font-size="12" text-anchor="middle"
    fill="#22c55e">リセットゲート</text>

  <!-- 候補隠れ状態 -->
  <rect x="500" y="140" width="80" height="80" rx="10" fill="#fef9c3" stroke="#eab308" stroke-width="2" />
  <text x="540" y="180" font-family="Arial, sans-serif" font-size="16" font-weight="bold" text-anchor="middle"
    fill="#eab308">~h_t</text>
  <text x="540" y="200" font-family="Arial, sans-serif" font-size="12" text-anchor="middle" fill="#eab308">候補隠れ状態</text>

  <!-- 入力 -->
  <text x="130" y="180" font-family="Arial, sans-serif" font-size="14" text-anchor="start" fill="#64748b">x_t</text>
  <line x1="150" y1="180" x2="200" y2="180" stroke="#64748b" stroke-width="1.5" />
  <polygon points="195,177 200,180 195,183" fill="#64748b" />

  <line x1="150" y1="180" x2="350" y2="180" stroke="#64748b" stroke-width="1.5" />
  <polygon points="345,177 350,180 345,183" fill="#64748b" />

  <line x1="150" y1="180" x2="500" y2="180" stroke="#64748b" stroke-width="1.5" />
  <polygon points="495,177 500,180 495,183" fill="#64748b" />

  <!-- 前の隠れ状態 -->
  <text x="130" y="140" font-family="Arial, sans-serif" font-size="14" text-anchor="start" fill="#3b82f6">h_{t-1}</text>
  <line x1="150" y1="140" x2="200" y2="140" stroke="#3b82f6" stroke-width="1.5" />
  <polygon points="195,137 200,140 195,143" fill="#3b82f6" />

  <line x1="150" y1="140" x2="350" y2="140" stroke="#3b82f6" stroke-width="1.5" />
  <polygon points="345,137 350,140 345,143" fill="#3b82f6" />

  <!-- リセットゲートの接続 -->
  <line x1="430" y1="180" x2="500" y2="180" stroke="#22c55e" stroke-width="1.5" />
  <polygon points="495,177 500,180 495,183" fill="#22c55e" />

  <!-- 計算式 -->
  <rect x="150" y="250" width="500" height="50" rx="5" fill="#f1f5f9" stroke="#64748b" stroke-width="1" />
  <text x="400" y="270" font-family="Arial, sans-serif" font-size="14" text-anchor="middle" fill="#334155">
    h_t = z_t * h_{t-1} + (1 - z_t) * ~h_t
  </text>
  <text x="400" y="290" font-family="Arial, sans-serif" font-size="14" text-anchor="middle" fill="#334155">
    ~h_t = tanh(W · [r_t * h_{t-1}, x_t] + b)
  </text>

  <!-- 出力 -->
  <text x="650" y="180" font-family="Arial, sans-serif" font-size="14" text-anchor="end" fill="#3b82f6">h_t</text>
  <line x1="580" y1="180" x2="630" y2="180" stroke="#3b82f6" stroke-width="1.5" />
  <polygon points="625,177 630,180 625,183" fill="#3b82f6" />

  <!-- 説明 -->
  <rect x="100" y="340" width="600" height="40" rx="5" fill="#f1f5f9" stroke="#64748b" stroke-width="1" />
  <text x="400" y="365" font-family="Arial, sans-serif" font-size="14" text-anchor="middle" fill="#334155">
    GRUはLSTMの簡略版で、更新ゲートとリセットゲートの2つのゲートのみを使用します。
    性能はLSTMと同等で、パラメータ数が少なく計算効率が良いのが特徴です。
  </text>
</svg>
