<svg xmlns="http://www.w3.org/2000/svg" viewBox="0 0 800 500">
  <!-- 背景 -->
  <rect width="800" height="500" fill="#f8f9fa" />

  <!-- タイトル -->
  <text x="400" y="40" font-family="Arial, sans-serif" font-size="24" font-weight="bold"
    text-anchor="middle">LSTMの構造と情報の流れ</text>

  <!-- LSTMセル全体 -->
  <rect x="100" y="80" width="600" height="300" rx="10" fill="#f3e8ff" stroke="#9333ea" stroke-width="2" />
  <text x="400" y="105" font-family="Arial, sans-serif" font-size="18" font-weight="bold" text-anchor="middle"
    fill="#9333ea">LSTMセル</text>

  <!-- セル状態（上部のパイプライン） -->
  <line x1="150" y1="150" x2="650" y2="150" stroke="#9333ea" stroke-width="3" />
  <text x="185" y="140" font-family="Arial, sans-serif" font-size="14" text-anchor="start" fill="#9333ea">セル状態
    C_{t-1}</text>
  <text x="620" y="140" font-family="Arial, sans-serif" font-size="14" text-anchor="end" fill="#9333ea">セル状態 C_t</text>

  <!-- 忘却ゲート -->
  <rect x="200" y="200" width="80" height="80" rx="40" fill="#ffedd5" stroke="#c2410c" stroke-width="2" />
  <text x="240" y="240" font-family="Arial, sans-serif" font-size="16" font-weight="bold" text-anchor="middle"
    fill="#c2410c">f_t</text>
  <text x="240" y="260" font-family="Arial, sans-serif" font-size="12" text-anchor="middle" fill="#c2410c">忘却ゲート</text>

  <!-- 入力ゲート -->
  <rect x="350" y="200" width="80" height="80" rx="40" fill="#dbeafe" stroke="#3b82f6" stroke-width="2" />
  <text x="390" y="240" font-family="Arial, sans-serif" font-size="16" font-weight="bold" text-anchor="middle"
    fill="#3b82f6">i_t</text>
  <text x="390" y="260" font-family="Arial, sans-serif" font-size="12" text-anchor="middle" fill="#3b82f6">入力ゲート</text>

  <!-- 出力ゲート -->
  <rect x="500" y="200" width="80" height="80" rx="40" fill="#dcfce7" stroke="#22c55e" stroke-width="2" />
  <text x="540" y="240" font-family="Arial, sans-serif" font-size="16" font-weight="bold" text-anchor="middle"
    fill="#22c55e">o_t</text>
  <text x="540" y="260" font-family="Arial, sans-serif" font-size="12" text-anchor="middle" fill="#22c55e">出力ゲート</text>

  <!-- 候補セル状態 -->
  <rect x="350" y="320" width="80" height="40" rx="5" fill="#fef9c3" stroke="#eab308" stroke-width="2" />
  <text x="390" y="345" font-family="Arial, sans-serif" font-size="14" font-weight="bold" text-anchor="middle"
    fill="#eab308">~C_t</text>

  <!-- 掛け算ポイント（×） -->
  <circle cx="240" cy="150" r="15" fill="#f1f5f9" stroke="#64748b" stroke-width="1" />
  <text x="240" y="155" font-family="Arial, sans-serif" font-size="16" font-weight="bold" text-anchor="middle">×</text>

  <circle cx="390" cy="150" r="15" fill="#f1f5f9" stroke="#64748b" stroke-width="1" />
  <text x="390" y="155" font-family="Arial, sans-serif" font-size="16" font-weight="bold" text-anchor="middle">+</text>

  <circle cx="540" cy="150" r="15" fill="#f1f5f9" stroke="#64748b" stroke-width="1" />
  <text x="540" y="155" font-family="Arial, sans-serif" font-size="16" font-weight="bold" text-anchor="middle">×</text>

  <circle cx="350" cy="150" r="15" fill="#f1f5f9" stroke="#64748b" stroke-width="1" />
  <text x="350" y="155" font-family="Arial, sans-serif" font-size="16" font-weight="bold" text-anchor="middle">×</text>

  <!-- 接続線 -->
  <!-- 忘却ゲートの接続 -->
  <line x1="240" y1="200" x2="240" y2="165" stroke="#c2410c" stroke-width="1.5" />
  <polygon points="237,170 240,165 243,170" fill="#c2410c" />

  <!-- 入力ゲートの接続 -->
  <line x1="390" y1="200" x2="390" y2="185" stroke="#3b82f6" stroke-width="1.5" />
  <line x1="390" y1="185" x2="350" y2="185" stroke="#3b82f6" stroke-width="1.5" />
  <line x1="350" y1="185" x2="350" y2="165" stroke="#3b82f6" stroke-width="1.5" />
  <polygon points="347,170 350,165 353,170" fill="#3b82f6" />

  <!-- 候補セル状態の接続 -->
  <line x1="390" y1="320" x2="390" y2="180" stroke="#eab308" stroke-width="1.5" />
  <line x1="390" y1="180" x2="350" y2="180" stroke="#eab308" stroke-width="1.5" />
  <line x1="350" y1="180" x2="350" y2="165" stroke="#eab308" stroke-width="1.5" />
  <polygon points="347,170 350,165 353,170" fill="#eab308" />

  <!-- 出力ゲートの接続 -->
  <line x1="540" y1="200" x2="540" y2="165" stroke="#22c55e" stroke-width="1.5" />
  <polygon points="537,170 540,165 543,170" fill="#22c55e" />

  <!-- 隠れ状態の出力 -->
  <line x1="540" y1="135" x2="540" y2="120" stroke="#9333ea" stroke-width="1.5" />
  <line x1="540" y1="120" x2="650" y2="120" stroke="#9333ea" stroke-width="1.5" />
  <polygon points="645,117 650,120 645,123" fill="#9333ea" />
  <text x="620" y="110" font-family="Arial, sans-serif" font-size="14" text-anchor="end" fill="#9333ea">隠れ状態 h_t</text>

  <!-- 入力 -->
  <line x1="120" y1="260" x2="200" y2="260" stroke="#64748b" stroke-width="1.5" />
  <polygon points="195,257 200,260 195,263" fill="#64748b" />
  <text x="130" y="250" font-family="Arial, sans-serif" font-size="14" text-anchor="start" fill="#64748b">入力 x_t</text>

  <line x1="120" y1="240" x2="350" y2="240" stroke="#64748b" stroke-width="1.5" />
  <polygon points="345,237 350,240 345,243" fill="#64748b" />

  <line x1="120" y1="220" x2="500" y2="220" stroke="#64748b" stroke-width="1.5" />
  <polygon points="495,217 500,220 495,223" fill="#64748b" />

  <line x1="120" y1="320" x2="350" y2="320" stroke="#64748b" stroke-width="1.5" />
  <polygon points="345,317 350,320 345,323" fill="#64748b" />

  <!-- 前の隠れ状態 -->
  <line x1="120" y1="280" x2="200" y2="280" stroke="#9333ea" stroke-width="1.5" />
  <polygon points="195,277 200,280 195,283" fill="#9333ea" />
  <text x="165" y="295" font-family="Arial, sans-serif" font-size="14" text-anchor="start" fill="#9333ea">h_{t-1}</text>

  <line x1="120" y1="280" x2="350" y2="260" stroke="#9333ea" stroke-width="1.5" />
  <polygon points="345,257 350,260 345,263" fill="#9333ea" />

  <line x1="120" y1="280" x2="500" y2="240" stroke="#9333ea" stroke-width="1.5" />
  <polygon points="495,237 500,240 495,243" fill="#9333ea" />

  <line x1="120" y1="280" x2="350" y2="340" stroke="#9333ea" stroke-width="1.5" />
  <polygon points="345,337 350,340 345,343" fill="#9333ea" />

  <!-- tanh 適用 -->
  <circle cx="600" cy="150" r="20" fill="#f1f5f9" stroke="#64748b" stroke-width="1" />
  <text x="600" y="155" font-family="Arial, sans-serif" font-size="14" font-weight="bold"
    text-anchor="middle">tanh</text>

  <line x1="600" y1="170" x2="540" y2="200" stroke="#64748b" stroke-width="1.5" />
  <polygon points="544,196 540,200 547,200" fill="#64748b" />

  <!-- 説明 -->
  <rect x="100" y="400" width="600" height="80" rx="5" fill="#f1f5f9" stroke="#64748b" stroke-width="1" />
  <text x="400" y="425" font-family="Arial, sans-serif" font-size="14" text-anchor="middle" fill="#334155">
    LSTMは3つのゲート（忘却・入力・出力）を持ち、長期的な依存関係を学習できる構造になっています。
  </text>
  <text x="400" y="450" font-family="Arial, sans-serif" font-size="14" text-anchor="middle" fill="#334155">
    セル状態（上部のパイプライン）は情報の長期的な記憶を担当し、ゲートによって情報の
  </text>
  <text x="400" y="475" font-family="Arial, sans-serif" font-size="14" text-anchor="middle" fill="#334155">
    追加・削除・出力を制御します。これにより勾配消失問題を軽減します。
  </text>
</svg>
