<svg xmlns="http://www.w3.org/2000/svg" viewBox="0 0 800 600">
  <!-- 背景 -->
  <rect width="800" height="600" fill="#f8f9fa" />

  <!-- タイトル -->
  <text x="400" y="40" font-family="Arial, sans-serif" font-size="24" font-weight="bold"
    text-anchor="middle">Transformerアーキテクチャの構造</text>

  <!-- エンコーダ側 -->
  <rect x="100" y="80" width="250" height="460" rx="10" fill="#dbeafe" stroke="#3b82f6" stroke-width="2" />
  <text x="225" y="110" font-family="Arial, sans-serif" font-size="18" font-weight="bold" text-anchor="middle"
    fill="#3b82f6">エンコーダ</text>

  <!-- エンコーダスタック（N×） -->
  <rect x="120" y="130" width="210" height="260" rx="5" fill="#bfdbfe" stroke="#3b82f6" stroke-width="1" />
  <text x="225" y="150" font-family="Arial, sans-serif" font-size="14" font-weight="bold" text-anchor="middle"
    fill="#3b82f6">N×エンコーダ層</text>

  <!-- 自己注意機構 -->
  <rect x="140" y="170" width="170" height="100" rx="5" fill="#eff6ff" stroke="#3b82f6" stroke-width="1" />
  <text x="225" y="190" font-family="Arial, sans-serif" font-size="14" font-weight="bold"
    text-anchor="middle">マルチヘッド自己注意機構</text>

  <circle cx="165" cy="220" r="10" fill="#3b82f6" />
  <circle cx="205" cy="220" r="10" fill="#3b82f6" />
  <circle cx="245" cy="220" r="10" fill="#3b82f6" />
  <circle cx="285" cy="220" r="10" fill="#3b82f6" />

  <line x1="165" y1="220" x2="205" y2="220" stroke="#3b82f6" stroke-width="1" />
  <line x1="205" y1="220" x2="245" y2="220" stroke="#3b82f6" stroke-width="1" />
  <line x1="245" y1="220" x2="285" y2="220" stroke="#3b82f6" stroke-width="1" />

  <line x1="165" y1="220" x2="245" y2="220" stroke="#3b82f6" stroke-width="1" stroke-dasharray="2,2" />
  <line x1="205" y1="220" x2="285" y2="220" stroke="#3b82f6" stroke-width="1" stroke-dasharray="2,2" />
  <line x1="165" y1="220" x2="285" y2="220" stroke="#3b82f6" stroke-width="1" stroke-dasharray="2,2" />

  <!-- 残差接続 -->
  <line x1="310" y1="220" x2="325" y2="220" stroke="#64748b" stroke-width="1" stroke-dasharray="3,3" />
  <line x1="325" y1="220" x2="325" y2="240" stroke="#64748b" stroke-width="1" stroke-dasharray="3,3" />
  <line x1="325" y1="240" x2="140" y2="240" stroke="#64748b" stroke-width="1" stroke-dasharray="3,3" />
  <text x="320" y="210" font-family="Arial, sans-serif" font-size="10" text-anchor="middle" fill="#64748b">残差接続</text>

  <!-- 正規化 -->
  <rect x="140" y="250" width="170" height="30" rx="5" fill="#eff6ff" stroke="#3b82f6" stroke-width="1" />
  <text x="225" y="270" font-family="Arial, sans-serif" font-size="12" text-anchor="middle">層正規化 (Layer Norm)</text>

  <!-- フィードフォワード -->
  <rect x="140" y="290" width="170" height="60" rx="5" fill="#eff6ff" stroke="#3b82f6" stroke-width="1" />
  <text x="225" y="320" font-family="Arial, sans-serif" font-size="14" font-weight="bold"
    text-anchor="middle">フィードフォワードネットワーク</text>

  <!-- 残差接続2 -->
  <line x1="310" y1="320" x2="325" y2="320" stroke="#64748b" stroke-width="1" stroke-dasharray="3,3" />
  <line x1="325" y1="320" x2="325" y2="340" stroke="#64748b" stroke-width="1" stroke-dasharray="3,3" />
  <line x1="325" y1="340" x2="140" y2="340" stroke="#64748b" stroke-width="1" stroke-dasharray="3,3" />

  <!-- 正規化2 -->
  <rect x="140" y="350" width="170" height="30" rx="5" fill="#eff6ff" stroke="#3b82f6" stroke-width="1" />
  <text x="225" y="370" font-family="Arial, sans-serif" font-size="12" text-anchor="middle">層正規化 (Layer Norm)</text>

  <!-- 入力埋め込み -->
  <rect x="120" y="400" width="210" height="40" rx="5" fill="#bfdbfe" stroke="#3b82f6" stroke-width="1" />
  <text x="225" y="425" font-family="Arial, sans-serif" font-size="14" font-weight="bold" text-anchor="middle"
    fill="#3b82f6">入力埋め込み + 位置エンコーディング</text>

  <!-- 入力 -->
  <rect x="120" y="450" width="210" height="40" rx="5" fill="#eff6ff" stroke="#3b82f6" stroke-width="1" />
  <text x="225" y="475" font-family="Arial, sans-serif" font-size="14" text-anchor="middle">入力シーケンス</text>
  <text x="225" y="495" font-family="Arial, sans-serif" font-size="12" text-anchor="middle" fill="#64748b">(例:
    "人工知能の研究は...")</text>

  <!-- デコーダ側 -->
  <rect x="450" y="80" width="250" height="460" rx="10" fill="#f3e8ff" stroke="#9333ea" stroke-width="2" />
  <text x="575" y="110" font-family="Arial, sans-serif" font-size="18" font-weight="bold" text-anchor="middle"
    fill="#9333ea">デコーダ</text>

  <!-- デコーダスタック（N×） -->
  <rect x="470" y="130" width="210" height="320" rx="5" fill="#e9d5ff" stroke="#9333ea" stroke-width="1" />
  <text x="575" y="150" font-family="Arial, sans-serif" font-size="14" font-weight="bold" text-anchor="middle"
    fill="#9333ea">N×デコーダ層</text>

  <!-- マスク付き自己注意機構 -->
  <rect x="490" y="170" width="170" height="100" rx="5" fill="#f5f3ff" stroke="#9333ea" stroke-width="1" />
  <text x="575" y="190" font-family="Arial, sans-serif" font-size="14" font-weight="bold"
    text-anchor="middle">マスク付き自己注意機構</text>

  <circle cx="515" cy="220" r="10" fill="#9333ea" />
  <circle cx="555" cy="220" r="10" fill="#9333ea" />
  <circle cx="595" cy="220" r="10" fill="#9333ea" />
  <circle cx="635" cy="220" r="10" fill="#9333ea" />

  <line x1="515" y1="220" x2="555" y2="220" stroke="#9333ea" stroke-width="1" />
  <line x1="555" y1="220" x2="595" y2="220" stroke="#9333ea" stroke-width="1" />

  <text x="575" y="240" font-family="Arial, sans-serif" font-size="10" text-anchor="middle">(未来の位置はマスク)</text>

  <!-- 残差接続 -->
  <line x1="660" y1="220" x2="675" y2="220" stroke="#64748b" stroke-width="1" stroke-dasharray="3,3" />
  <line x1="675" y1="220" x2="675" y2="240" stroke="#64748b" stroke-width="1" stroke-dasharray="3,3" />
  <line x1="675" y1="240" x2="490" y2="240" stroke="#64748b" stroke-width="1" stroke-dasharray="3,3" />

  <!-- 正規化 -->
  <rect x="490" y="250" width="170" height="30" rx="5" fill="#f5f3ff" stroke="#9333ea" stroke-width="1" />
  <text x="575" y="270" font-family="Arial, sans-serif" font-size="12" text-anchor="middle">層正規化 (Layer Norm)</text>

  <!-- エンコーダ-デコーダ注意機構 -->
  <rect x="490" y="290" width="170" height="80" rx="5" fill="#f5f3ff" stroke="#9333ea" stroke-width="1" />
  <text x="575" y="310" font-family="Arial, sans-serif" font-size="14" font-weight="bold"
    text-anchor="middle">エンコーダ-デコーダ</text>
  <text x="575" y="330" font-family="Arial, sans-serif" font-size="14" font-weight="bold"
    text-anchor="middle">注意機構</text>

  <!-- エンコーダからの接続 -->
  <line x1="350" y1="320" x2="490" y2="320" stroke="#64748b" stroke-width="1.5" stroke-dasharray="5,5" />
  <polygon points="485,317 490,320 485,323" fill="#64748b" />

  <!-- 残差接続2 -->
  <line x1="660" y1="320" x2="675" y2="320" stroke="#64748b" stroke-width="1" stroke-dasharray="3,3" />
  <line x1="675" y1="320" x2="675" y2="340" stroke="#64748b" stroke-width="1" stroke-dasharray="3,3" />
  <line x1="675" y1="340" x2="490" y2="340" stroke="#64748b" stroke-width="1" stroke-dasharray="3,3" />

  <!-- 正規化2 -->
  <rect x="490" y="350" width="170" height="30" rx="5" fill="#f5f3ff" stroke="#9333ea" stroke-width="1" />
  <text x="575" y="370" font-family="Arial, sans-serif" font-size="12" text-anchor="middle">層正規化 (Layer Norm)</text>

  <!-- フィードフォワード -->
  <rect x="490" y="390" width="170" height="50" rx="5" fill="#f5f3ff" stroke="#9333ea" stroke-width="1" />
  <text x="575" y="420" font-family="Arial, sans-serif" font-size="14" font-weight="bold"
    text-anchor="middle">フィードフォワードネットワーク</text>

  <!-- 線形層と出力 -->
  <rect x="470" y="460" width="210" height="30" rx="5" fill="#e9d5ff" stroke="#9333ea" stroke-width="1" />
  <text x="575" y="480" font-family="Arial, sans-serif" font-size="14" font-weight="bold" text-anchor="middle"
    fill="#9333ea">線形層 + ソフトマックス</text>

  <!-- 出力 -->
  <rect x="470" y="500" width="210" height="40" rx="5" fill="#f5f3ff" stroke="#9333ea" stroke-width="1" />
  <text x="575" y="525" font-family="Arial, sans-serif" font-size="14" text-anchor="middle">出力シーケンス</text>
  <text x="575" y="545" font-family="Arial, sans-serif" font-size="12" text-anchor="middle" fill="#64748b">(例: "AI
    research is...")</text>

  <!-- 説明 -->
  <rect x="100" y="550" width="600" height="40" rx="5" fill="#f1f5f9" stroke="#64748b" stroke-width="1" />
  <text x="400" y="570" font-family="Arial, sans-serif" font-size="14" text-anchor="middle" fill="#334155">
    Transformerは自己注意機構を中心とするエンコーダ・デコーダ構造で、
  </text>
  <text x="400" y="590" font-family="Arial, sans-serif" font-size="14" text-anchor="middle" fill="#334155">
    RNNを使わずに並列計算可能かつ長距離依存関係を捉えられる革新的なアーキテクチャです
  </text>
</svg>
