<svg viewBox="0 0 900 700" xmlns="http://www.w3.org/2000/svg">
  <!-- Background -->
  <rect width="900" height="700" fill="#f8f9fa"/>
  
  <!-- Title -->
  <text x="450" y="30" text-anchor="middle" font-family="Arial, sans-serif" font-size="20" font-weight="bold" fill="#2c3e50">
    データベースの内部ファイル構造
  </text>
  
  <!-- SQL Layer (Top) -->
  <g id="sql-layer">
    <rect x="50" y="60" width="800" height="60" rx="8" fill="#3498db" stroke="#2980b9" stroke-width="2"/>
    <text x="450" y="85" text-anchor="middle" font-family="Arial, sans-serif" font-size="14" font-weight="bold" fill="white">
      SQL文（ユーザーが触る部分）
    </text>
    <text x="450" y="105" text-anchor="middle" font-family="Arial, sans-serif" font-size="12" fill="white">
      SELECT * FROM users WHERE id = 100;
    </text>
    
    <!-- Arrow down -->
    <path d="M 450 130 L 450 150 L 445 145 M 450 150 L 455 145" stroke="#34495e" stroke-width="2" fill="none"/>
    <text x="470" y="145" font-family="Arial, sans-serif" font-size="10" fill="#34495e">
      内部処理
    </text>
  </g>
  
  <!-- Disk Storage Area -->
  <rect x="30" y="170" width="840" height="480" rx="10" fill="#ecf0f1" stroke="#bdc3c7" stroke-width="2"/>
  <text x="450" y="190" text-anchor="middle" font-family="Arial, sans-serif" font-size="16" font-weight="bold" fill="#2c3e50">
    ディスク上のファイル（実際のデータ保存場所）
  </text>
  
  <!-- Data File Section -->
  <g id="data-file">
    <rect x="60" y="220" width="240" height="300" rx="8" fill="#e74c3c" stroke="#c0392b" stroke-width="2"/>
    <text x="180" y="245" text-anchor="middle" font-family="Arial, sans-serif" font-size="14" font-weight="bold" fill="white">
      1. データファイル
    </text>
    <text x="180" y="260" text-anchor="middle" font-family="Arial, sans-serif" font-size="11" fill="white">
      (テーブルの行データ)
    </text>
    
    <!-- Page structure -->
    <text x="70" y="285" font-family="Arial, sans-serif" font-size="10" font-weight="bold" fill="white">
      ページ単位（8KB）で管理:
    </text>
    
    <!-- Pages -->
    <rect x="70" y="295" width="60" height="35" rx="3" fill="white" stroke="#c0392b"/>
    <text x="100" y="310" text-anchor="middle" font-family="Arial, sans-serif" font-size="8" fill="#e74c3c">
      Page 1
    </text>
    <text x="100" y="320" text-anchor="middle" font-family="Arial, sans-serif" font-size="8" fill="#e74c3c">
      行1-100
    </text>
    
    <rect x="140" y="295" width="60" height="35" rx="3" fill="white" stroke="#c0392b"/>
    <text x="170" y="310" text-anchor="middle" font-family="Arial, sans-serif" font-size="8" fill="#e74c3c">
      Page 2
    </text>
    <text x="170" y="320" text-anchor="middle" font-family="Arial, sans-serif" font-size="8" fill="#e74c3c">
      行101-200
    </text>
    
    <rect x="210" y="295" width="60" height="35" rx="3" fill="white" stroke="#c0392b"/>
    <text x="240" y="310" text-anchor="middle" font-family="Arial, sans-serif" font-size="8" fill="#e74c3c">
      Page 3
    </text>
    <text x="240" y="320" text-anchor="middle" font-family="Arial, sans-serif" font-size="8" fill="#e74c3c">
      行201-300
    </text>
    
    <!-- B-tree structure -->
    <text x="70" y="350" font-family="Arial, sans-serif" font-size="10" font-weight="bold" fill="white">
      Bツリー構造:
    </text>
    
    <!-- Root node -->
    <rect x="140" y="360" width="60" height="25" rx="3" fill="white" stroke="#c0392b"/>
    <text x="170" y="375" text-anchor="middle" font-family="Arial, sans-serif" font-size="8" fill="#e74c3c">
      Root Node
    </text>
    
    <!-- Child nodes -->
    <rect x="90" y="400" width="40" height="20" rx="3" fill="white" stroke="#c0392b"/>
    <text x="110" y="412" text-anchor="middle" font-family="Arial, sans-serif" font-size="7" fill="#e74c3c">
      Node
    </text>
    
    <rect x="190" y="400" width="40" height="20" rx="3" fill="white" stroke="#c0392b"/>
    <text x="210" y="412" text-anchor="middle" font-family="Arial, sans-serif" font-size="7" fill="#e74c3c">
      Node
    </text>
    
    <!-- Connections -->
    <line x1="155" y1="385" x2="110" y2="400" stroke="white" stroke-width="1"/>
    <line x1="185" y1="385" x2="210" y2="400" stroke="white" stroke-width="1"/>
    
    <text x="70" y="450" font-family="Arial, sans-serif" font-size="9" fill="white">
      • 実際のテーブルデータ
    </text>
    <text x="70" y="465" font-family="Arial, sans-serif" font-size="9" fill="white">
      • 行データの物理保存
    </text>
    <text x="70" y="480" font-family="Arial, sans-serif" font-size="9" fill="white">
      • ページ単位でI/O発生
    </text>
    <text x="70" y="495" font-family="Arial, sans-serif" font-size="9" fill="white">
      • 効率的なデータアクセス
    </text>
  </g>
  
  <!-- Log File Section -->
  <g id="log-file">
    <rect x="330" y="220" width="240" height="300" rx="8" fill="#f39c12" stroke="#e67e22" stroke-width="2"/>
    <text x="450" y="245" text-anchor="middle" font-family="Arial, sans-serif" font-size="14" font-weight="bold" fill="white">
      2. ログファイル
    </text>
    <text x="450" y="260" text-anchor="middle" font-family="Arial, sans-serif" font-size="11" fill="white">
      (トランザクションログ)
    </text>
    
    <!-- WAL explanation -->
    <text x="340" y="285" font-family="Arial, sans-serif" font-size="10" font-weight="bold" fill="white">
      Write-Ahead Logging (WAL):
    </text>
    
    <!-- Log entries -->
    <rect x="340" y="295" width="220" height="20" rx="3" fill="white" stroke="#e67e22"/>
    <text x="350" y="308" font-family="Arial, sans-serif" font-size="8" fill="#f39c12">
      LOG: UPDATE users SET name='田中' WHERE id=100
    </text>
    
    <rect x="340" y="320" width="220" height="20" rx="3" fill="white" stroke="#e67e22"/>
    <text x="350" y="333" font-family="Arial, sans-serif" font-size="8" fill="#f39c12">
      LOG: INSERT INTO orders VALUES(501, 100, ...)
    </text>
    
    <rect x="340" y="345" width="220" height="20" rx="3" fill="white" stroke="#e67e22"/>
    <text x="350" y="358" font-family="Arial, sans-serif" font-size="8" fill="#f39c12">
      LOG: DELETE FROM products WHERE id=200
    </text>
    
    <!-- WAL Process -->
    <text x="340" y="385" font-family="Arial, sans-serif" font-size="10" font-weight="bold" fill="white">
      処理順序:
    </text>
    
    <circle cx="350" cy="400" r="8" fill="white"/>
    <text x="350" y="405" text-anchor="middle" font-family="Arial, sans-serif" font-size="8" font-weight="bold" fill="#f39c12">
      1
    </text>
    <text x="365" y="405" font-family="Arial, sans-serif" font-size="9" fill="white">
      まずログに記録
    </text>
    
    <circle cx="350" cy="420" r="8" fill="white"/>
    <text x="350" y="425" text-anchor="middle" font-family="Arial, sans-serif" font-size="8" font-weight="bold" fill="#f39c12">
      2
    </text>
    <text x="365" y="425" font-family="Arial, sans-serif" font-size="9" fill="white">
      その後データファイルに反映
    </text>
    
    <text x="340" y="450" font-family="Arial, sans-serif" font-size="9" fill="white">
      • クラッシュ復旧に使用
    </text>
    <text x="340" y="465" font-family="Arial, sans-serif" font-size="9" fill="white">
      • データの整合性保証
    </text>
    <text x="340" y="480" font-family="Arial, sans-serif" font-size="9" fill="white">
      • トランザクション管理
    </text>
    <text x="340" y="495" font-family="Arial, sans-serif" font-size="9" fill="white">
      • 更新履歴の記録
    </text>
  </g>
  
  <!-- Index File Section -->
  <g id="index-file">
    <rect x="600" y="220" width="240" height="300" rx="8" fill="#9b59b6" stroke="#8e44ad" stroke-width="2"/>
    <text x="720" y="245" text-anchor="middle" font-family="Arial, sans-serif" font-size="14" font-weight="bold" fill="white">
      3. インデックスファイル
    </text>
    <text x="720" y="260" text-anchor="middle" font-family="Arial, sans-serif" font-size="11" fill="white">
      (検索高速化)
    </text>
    
    <!-- B+ Tree structure -->
    <text x="610" y="285" font-family="Arial, sans-serif" font-size="10" font-weight="bold" fill="white">
      B+ツリー構造:
    </text>
    
    <!-- Root level -->
    <rect x="690" y="295" width="60" height="25" rx="3" fill="white" stroke="#8e44ad"/>
    <text x="720" y="310" text-anchor="middle" font-family="Arial, sans-serif" font-size="8" fill="#9b59b6">
      Root: 1-500
    </text>
    
    <!-- Intermediate level -->
    <rect x="630" y="335" width="50" height="20" rx="3" fill="white" stroke="#8e44ad"/>
    <text x="655" y="347" text-anchor="middle" font-family="Arial, sans-serif" font-size="7" fill="#9b59b6">
      1-250
    </text>
    
    <rect x="720" y="335" width="50" height="20" rx="3" fill="white" stroke="#8e44ad"/>
    <text x="745" y="347" text-anchor="middle" font-family="Arial, sans-serif" font-size="7" fill="#9b59b6">
      251-500
    </text>
    
    <!-- Leaf level -->
    <rect x="610" y="370" width="35" height="15" rx="2" fill="white" stroke="#8e44ad"/>
    <text x="627" y="380" text-anchor="middle" font-family="Arial, sans-serif" font-size="6" fill="#9b59b6">
      1-125
    </text>
    
    <rect x="650" y="370" width="35" height="15" rx="2" fill="white" stroke="#8e44ad"/>
    <text x="667" y="380" text-anchor="middle" font-family="Arial, sans-serif" font-size="6" fill="#9b59b6">
      126-250
    </text>
    
    <rect x="720" y="370" width="35" height="15" rx="2" fill="white" stroke="#8e44ad"/>
    <text x="737" y="380" text-anchor="middle" font-family="Arial, sans-serif" font-size="6" fill="#9b59b6">
      251-375
    </text>
    
    <rect x="760" y="370" width="35" height="15" rx="2" fill="white" stroke="#8e44ad"/>
    <text x="777" y="380" text-anchor="middle" font-family="Arial, sans-serif" font-size="6" fill="#9b59b6">
      376-500
    </text>
    
    <!-- Tree connections -->
    <line x1="705" y1="320" x2="655" y2="335" stroke="white" stroke-width="1"/>
    <line x1="735" y1="320" x2="745" y2="335" stroke="white" stroke-width="1"/>
    <line x1="645" y1="355" x2="627" y2="370" stroke="white" stroke-width="1"/>
    <line x1="665" y1="355" x2="667" y2="370" stroke="white" stroke-width="1"/>
    <line x1="735" y1="355" x2="737" y2="370" stroke="white" stroke-width="1"/>
    <line x1="755" y1="355" x2="777" y2="370" stroke="white" stroke-width="1"/>
    
    <!-- Search example -->
    <text x="610" y="405" font-family="Arial, sans-serif" font-size="10" font-weight="bold" fill="white">
      検索例（id=100）:
    </text>
    
    <rect x="610" y="415" width="200" height="15" rx="2" fill="#ffffff20" stroke="white"/>
    <text x="615" y="425" font-family="Arial, sans-serif" font-size="8" fill="white">
      Root → 1-250 → 126-250 → データ位置
    </text>
    
    <text x="610" y="450" font-family="Arial, sans-serif" font-size="9" fill="white">
      • WHERE句の高速化
    </text>
    <text x="610" y="465" font-family="Arial, sans-serif" font-size="9" fill="white">
      • JOIN処理の効率化
    </text>
    <text x="610" y="480" font-family="Arial, sans-serif" font-size="9" fill="white">
      • ソート処理の最適化
    </text>
    <text x="610" y="495" font-family="Arial, sans-serif" font-size="9" fill="white">
      • O(log n)の検索時間
    </text>
  </g>
  
  <!-- I/O Flow arrows -->
  <g id="io-flow">
    <!-- Data file I/O -->
    <path d="M 180 530 L 180 550 L 175 545 M 180 550 L 185 545" stroke="#e74c3c" stroke-width="2" fill="none"/>
    <text x="130" y="570" font-family="Arial, sans-serif" font-size="10" fill="#e74c3c">
      ページ単位のI/O
    </text>
    
    <!-- Log file I/O -->
    <path d="M 450 530 L 450 550 L 445 545 M 450 550 L 455 545" stroke="#f39c12" stroke-width="2" fill="none"/>
    <text x="410" y="570" font-family="Arial, sans-serif" font-size="10" fill="#f39c12">
      シーケンシャル書き込み
    </text>
    
    <!-- Index file I/O -->
    <path d="M 720 530 L 720 550 L 715 545 M 720 550 L 725 545" stroke="#9b59b6" stroke-width="2" fill="none"/>
    <text x="670" y="570" font-family="Arial, sans-serif" font-size="10" fill="#9b59b6">
      ランダムアクセス
    </text>
  </g>
  
  <!-- Bottom explanation -->
  <rect x="50" y="590" width="800" height="80" rx="8" fill="#34495e" stroke="#2c3e50" stroke-width="2"/>
  <text x="450" y="615" text-anchor="middle" font-family="Arial, sans-serif" font-size="14" font-weight="bold" fill="white">
    なぜI/Oが発生するのか？
  </text>
  <text x="60" y="635" font-family="Arial, sans-serif" font-size="11" fill="white">
    • データファイル：必要なページをメモリに読み込む必要がある
  </text>
  <text x="60" y="650" font-family="Arial, sans-serif" font-size="11" fill="white">
    • ログファイル：更新時にディスクへの書き込みが必要（永続化）
  </text>
  <text x="60" y="665" font-family="Arial, sans-serif" font-size="11" fill="white">
    • インデックスファイル：検索時にツリー構造を辿るためのアクセスが発生
  </text>
</svg>