<svg xmlns="http://www.w3.org/2000/svg" viewBox="0 0 1200 900" style="background-color: #f8f9fa;">
  <!-- Title -->
  <text x="600" y="30" text-anchor="middle" font-size="24" font-weight="bold" fill="#1a365d">JARM (JWT Secured Authorization Response Mode) Flow</text>
  
  <!-- Actors -->
  <g id="actors">
    <!-- Client -->
    <rect x="50" y="60" width="200" height="60" fill="#4c1d95" rx="5"/>
    <text x="150" y="95" text-anchor="middle" font-size="16" fill="white" font-weight="bold">クライアント</text>
    
    <!-- Authorization Server -->
    <rect x="450" y="60" width="200" height="60" fill="#059669" rx="5"/>
    <text x="550" y="95" text-anchor="middle" font-size="16" fill="white" font-weight="bold">認可サーバー</text>
    
    <!-- End User -->
    <rect x="850" y="60" width="200" height="60" fill="#0891b2" rx="5"/>
    <text x="950" y="95" text-anchor="middle" font-size="16" fill="white" font-weight="bold">エンドユーザー</text>
  </g>
  
  <!-- Vertical Lines -->
  <line x1="150" y1="120" x2="150" y2="880" stroke="#cbd5e1" stroke-width="2" stroke-dasharray="5,5"/>
  <line x1="550" y1="120" x2="550" y2="880" stroke="#cbd5e1" stroke-width="2" stroke-dasharray="5,5"/>
  <line x1="950" y1="120" x2="950" y2="880" stroke="#cbd5e1" stroke-width="2" stroke-dasharray="5,5"/>
  
  <!-- Phase 1: Authorization Request -->
  <g id="phase1">
    <rect x="20" y="150" width="300" height="30" fill="#fef3c7" stroke="#f59e0b" stroke-width="2" rx="5"/>
    <text x="170" y="170" text-anchor="middle" font-size="14" font-weight="bold">1. 認可リクエスト</text>
    
    <!-- Request -->
    <path d="M 150 200 L 540 200" stroke="#3b82f6" stroke-width="2" marker-end="url(#arrowblue)"/>
    <text x="345" y="195" text-anchor="middle" font-size="12" font-weight="bold">GET /authorize</text>
    <text x="345" y="215" text-anchor="middle" font-size="11">response_mode=jwt</text>
    <text x="345" y="230" text-anchor="middle" font-size="11">response_type=code</text>
    
    <!-- User Authentication -->
    <path d="M 560 250 L 940 250" stroke="#0891b2" stroke-width="2" marker-end="url(#arrowcyan)"/>
    <text x="750" y="245" text-anchor="middle" font-size="12" font-weight="bold">1.1 ユーザー認証</text>
    <text x="750" y="265" text-anchor="middle" font-size="11">ログイン画面</text>
    
    <path d="M 940 290 L 560 290" stroke="#0891b2" stroke-width="2" marker-end="url(#arrowcyan)"/>
    <text x="750" y="285" text-anchor="middle" font-size="11">認証情報</text>
    
    <!-- Consent -->
    <path d="M 560 330 L 940 330" stroke="#0891b2" stroke-width="2" marker-end="url(#arrowcyan)"/>
    <text x="750" y="325" text-anchor="middle" font-size="12" font-weight="bold">同意画面</text>
    
    <path d="M 940 370 L 560 370" stroke="#0891b2" stroke-width="2" marker-end="url(#arrowcyan)"/>
    <text x="750" y="365" text-anchor="middle" font-size="11">同意確認</text>
    
    <!-- Response Creation -->
    <rect x="480" y="400" width="140" height="120" fill="#dcfce7" stroke="#22c55e" rx="5"/>
    <text x="550" y="420" text-anchor="middle" font-size="12" font-weight="bold">1.2 レスポンス作成</text>
    <text x="490" y="440" font-size="10">Payload: {</text>
    <text x="500" y="455" font-size="10">  "iss": "https://as",</text>
    <text x="500" y="470" font-size="10">  "aud": "client_id",</text>
    <text x="500" y="485" font-size="10">  "code": "abc123",</text>
    <text x="500" y="500" font-size="10">  "state": "xyz789"</text>
    <text x="490" y="515" font-size="10">}</text>
    
    <!-- JWT Signing -->
    <rect x="480" y="540" width="140" height="80" fill="#e0e7ff" stroke="#6366f1" rx="5"/>
    <text x="550" y="560" text-anchor="middle" font-size="12" font-weight="bold">1.3 JWT署名</text>
    <text x="490" y="580" font-size="11">• RS256/ES256</text>
    <text x="490" y="595" font-size="11">• kid指定</text>
    <text x="490" y="610" font-size="11">• 暗号化(optional)</text>
    
    <!-- Redirect Response -->
    <path d="M 540 640 L 160 640" stroke="#9333ea" stroke-width="2" marker-end="url(#arrowpurple)"/>
    <text x="345" y="635" text-anchor="middle" font-size="12" font-weight="bold">302 Redirect</text>
    <text x="345" y="655" text-anchor="middle" font-size="11">#response=eyJhbGci...</text>
  </g>
  
  <!-- Phase 2: Response Verification -->
  <g id="phase2">
    <rect x="20" y="680" width="300" height="30" fill="#fef3c7" stroke="#f59e0b" stroke-width="2" rx="5"/>
    <text x="170" y="700" text-anchor="middle" font-size="14" font-weight="bold">2. レスポンス検証</text>
    
    <!-- Verification Steps -->
    <rect x="80" y="730" width="140" height="120" fill="#fee2e2" stroke="#ef4444" rx="5"/>
    <text x="150" y="750" text-anchor="middle" font-size="12" font-weight="bold">検証ステップ</text>
    <text x="90" y="770" font-size="11">2.1 JWT取得</text>
    <text x="90" y="785" font-size="11">2.2 復号(if encrypted)</text>
    <text x="90" y="800" font-size="11">2.3 署名検証</text>
    <text x="90" y="815" font-size="11">2.4 クレーム検証</text>
    <text x="100" y="830" font-size="10">• iss, aud, exp</text>
    <text x="100" y="845" font-size="10">• state一致確認</text>
  </g>
  
  <!-- Phase 3: Token Exchange -->
  <g id="phase3">
    <rect x="350" y="680" width="300" height="30" fill="#fef3c7" stroke="#f59e0b" stroke-width="2" rx="5"/>
    <text x="500" y="700" text-anchor="middle" font-size="14" font-weight="bold">3. トークン交換</text>
    
    <!-- Token Request -->
    <path d="M 250 760 L 540 760" stroke="#22c55e" stroke-width="2" marker-end="url(#arrowgreen)"/>
    <text x="395" y="755" text-anchor="middle" font-size="12" font-weight="bold">POST /token</text>
    <text x="395" y="775" text-anchor="middle" font-size="11">code=abc123</text>
    <text x="395" y="790" text-anchor="middle" font-size="11">code_verifier=...</text>
  </g>
  
  <!-- Arrow Definitions -->
  <defs>
    <marker id="arrowblue" markerWidth="10" markerHeight="10" refX="9" refY="3" orient="auto" markerUnits="strokeWidth">
      <path d="M0,0 L0,6 L9,3 z" fill="#3b82f6"/>
    </marker>
    <marker id="arrowgreen" markerWidth="10" markerHeight="10" refX="9" refY="3" orient="auto" markerUnits="strokeWidth">
      <path d="M0,0 L0,6 L9,3 z" fill="#22c55e"/>
    </marker>
    <marker id="arrowcyan" markerWidth="10" markerHeight="10" refX="9" refY="3" orient="auto" markerUnits="strokeWidth">
      <path d="M0,0 L0,6 L9,3 z" fill="#0891b2"/>
    </marker>
    <marker id="arrowpurple" markerWidth="10" markerHeight="10" refX="9" refY="3" orient="auto" markerUnits="strokeWidth">
      <path d="M0,0 L0,6 L9,3 z" fill="#9333ea"/>
    </marker>
  </defs>
</svg>