<svg xmlns="http://www.w3.org/2000/svg" viewBox="0 0 1200 800" style="background-color: #f8f9fa;">
  <!-- Title -->
  <text x="600" y="30" text-anchor="middle" font-size="24" font-weight="bold" fill="#1a365d">PAR (Pushed Authorization Request) Flow</text>
  
  <!-- Actors -->
  <g id="actors">
    <!-- Client -->
    <rect x="50" y="60" width="200" height="60" fill="#4c1d95" rx="5"/>
    <text x="150" y="95" text-anchor="middle" font-size="16" fill="white" font-weight="bold">クライアント</text>
    
    <!-- Authorization Server -->
    <rect x="500" y="60" width="200" height="60" fill="#059669" rx="5"/>
    <text x="600" y="95" text-anchor="middle" font-size="16" fill="white" font-weight="bold">認可サーバー</text>
    
    <!-- Resource Server -->
    <rect x="950" y="60" width="200" height="60" fill="#dc2626" rx="5"/>
    <text x="1050" y="95" text-anchor="middle" font-size="16" fill="white" font-weight="bold">リソースサーバー</text>
  </g>
  
  <!-- Vertical Lines -->
  <line x1="150" y1="120" x2="150" y2="780" stroke="#cbd5e1" stroke-width="2" stroke-dasharray="5,5"/>
  <line x1="600" y1="120" x2="600" y2="780" stroke="#cbd5e1" stroke-width="2" stroke-dasharray="5,5"/>
  <line x1="1050" y1="120" x2="1050" y2="780" stroke="#cbd5e1" stroke-width="2" stroke-dasharray="5,5"/>
  
  <!-- Phase 1: PAR Preparation -->
  <g id="phase1">
    <rect x="20" y="150" width="260" height="30" fill="#fef3c7" stroke="#f59e0b" stroke-width="2" rx="5"/>
    <text x="150" y="170" text-anchor="middle" font-size="14" font-weight="bold">1. PAR準備フェーズ</text>
    
    <!-- Step 1.1 -->
    <rect x="80" y="200" width="140" height="100" fill="#dbeafe" stroke="#3b82f6" rx="5"/>
    <text x="150" y="220" text-anchor="middle" font-size="12" font-weight="bold">1.1 認可リクエスト作成</text>
    <text x="90" y="240" font-size="11">• client_id</text>
    <text x="90" y="255" font-size="11">• redirect_uri</text>
    <text x="90" y="270" font-size="11">• scope</text>
    <text x="90" y="285" font-size="11">• state (CSRF対策)</text>
    
    <!-- Step 1.2 -->
    <rect x="80" y="320" width="140" height="60" fill="#e0e7ff" stroke="#6366f1" rx="5"/>
    <text x="150" y="340" text-anchor="middle" font-size="12" font-weight="bold">1.2 JARとして署名</text>
    <text x="90" y="360" font-size="11">• 秘密鍵で署名</text>
    <text x="90" y="375" font-size="11">• JWTフォーマット</text>
  </g>
  
  <!-- Phase 2: PAR Request -->
  <g id="phase2">
    <rect x="20" y="400" width="260" height="30" fill="#fef3c7" stroke="#f59e0b" stroke-width="2" rx="5"/>
    <text x="150" y="420" text-anchor="middle" font-size="14" font-weight="bold">2. PARリクエスト送信</text>
    
    <!-- Request Arrow -->
    <path d="M 150 450 L 590 450" stroke="#3b82f6" stroke-width="2" marker-end="url(#arrowblue)"/>
    <text x="370" y="445" text-anchor="middle" font-size="12" font-weight="bold">POST /par</text>
    <text x="370" y="465" text-anchor="middle" font-size="11">client_id, request (JWT)</text>
    
    <!-- Server Processing -->
    <rect x="530" y="490" width="140" height="120" fill="#dcfce7" stroke="#22c55e" rx="5"/>
    <text x="600" y="510" text-anchor="middle" font-size="12" font-weight="bold">2.1 クライアント認証</text>
    <text x="540" y="530" font-size="11">• client_id検証</text>
    <text x="540" y="545" font-size="11">• 署名検証</text>
    <text x="600" y="570" text-anchor="middle" font-size="12" font-weight="bold">2.2 リクエスト検証</text>
    <text x="540" y="590" font-size="11">• redirect_uri検証</text>
    <text x="540" y="605" font-size="11">• scope検証</text>
    
    <!-- Response Arrow -->
    <path d="M 590 630 L 160 630" stroke="#22c55e" stroke-width="2" marker-end="url(#arrowgreen)"/>
    <text x="370" y="625" text-anchor="middle" font-size="12" font-weight="bold">201 Created</text>
    <text x="370" y="645" text-anchor="middle" font-size="11">request_uri, expires_in</text>
  </g>
  
  <!-- Phase 3: Authorization Flow -->
  <g id="phase3">
    <rect x="20" y="670" width="260" height="30" fill="#fef3c7" stroke="#f59e0b" stroke-width="2" rx="5"/>
    <text x="150" y="690" text-anchor="middle" font-size="14" font-weight="bold">3. 認可フロー開始</text>
    
    <!-- Browser Redirect -->
    <path d="M 150 720 L 590 720" stroke="#9333ea" stroke-width="2" marker-end="url(#arrowpurple)"/>
    <text x="370" y="715" text-anchor="middle" font-size="12" font-weight="bold">ブラウザリダイレクト</text>
    <text x="370" y="735" text-anchor="middle" font-size="11">/authorize?request_uri=...</text>
  </g>
  
  <!-- Arrow Definitions -->
  <defs>
    <marker id="arrowblue" markerWidth="10" markerHeight="10" refX="9" refY="3" orient="auto" markerUnits="strokeWidth">
      <path d="M0,0 L0,6 L9,3 z" fill="#3b82f6"/>
    </marker>
    <marker id="arrowgreen" markerWidth="10" markerHeight="10" refX="9" refY="3" orient="auto" markerUnits="strokeWidth">
      <path d="M0,0 L0,6 L9,3 z" fill="#22c55e"/>
    </marker>
    <marker id="arrowpurple" markerWidth="10" markerHeight="10" refX="9" refY="3" orient="auto" markerUnits="strokeWidth">
      <path d="M0,0 L0,6 L9,3 z" fill="#9333ea"/>
    </marker>
  </defs>
</svg>