<svg xmlns="http://www.w3.org/2000/svg" viewBox="0 0 800 600" style="background-color: #f8f9fa;">
  <!-- Title -->
  <text x="400" y="30" text-anchor="middle" font-size="24" font-weight="bold" fill="#1a365d">多層防御アーキテクチャ</text>
  
  <!-- Layer 1: Transport -->
  <g id="layer1">
    <rect x="50" y="60" width="700" height="80" fill="#dbeafe" stroke="#3b82f6" stroke-width="2" rx="5"/>
    <text x="70" y="90" font-size="16" font-weight="bold" fill="#1e40af">第1層: トランスポート層</text>
    <text x="70" y="110" font-size="14">• TLS 1.2以上必須</text>
    <text x="300" y="110" font-size="14">• 強力な暗号スイートのみ許可</text>
    <text x="550" y="110" font-size="14">• 証明書ピンニング</text>
  </g>
  
  <!-- Layer 2: Authentication -->
  <g id="layer2">
    <rect x="100" y="160" width="600" height="80" fill="#dcfce7" stroke="#22c55e" stroke-width="2" rx="5"/>
    <text x="120" y="190" font-size="16" font-weight="bold" fill="#15803d">第2層: 認証層</text>
    <text x="120" y="210" font-size="14">• クライアント認証 (MTLS/JWT)</text>
    <text x="380" y="210" font-size="14">• 動的登録の無効化</text>
    <text x="550" y="210" font-size="14">• メタデータ検証</text>
  </g>
  
  <!-- Layer 3: Authorization -->
  <g id="layer3">
    <rect x="150" y="260" width="500" height="80" fill="#e0e7ff" stroke="#6366f1" stroke-width="2" rx="5"/>
    <text x="170" y="290" font-size="16" font-weight="bold" fill="#4338ca">第3層: 認可層</text>
    <text x="170" y="310" font-size="14">• PAR + JAR</text>
    <text x="320" y="310" font-size="14">• JARM</text>
    <text x="450" y="310" font-size="14">• 最小権限の原則</text>
  </g>
  
  <!-- Layer 4: Token -->
  <g id="layer4">
    <rect x="200" y="360" width="400" height="80" fill="#fef3c7" stroke="#f59e0b" stroke-width="2" rx="5"/>
    <text x="220" y="390" font-size="16" font-weight="bold" fill="#d97706">第4層: トークン層</text>
    <text x="220" y="410" font-size="14">• 送信者制約</text>
    <text x="350" y="410" font-size="14">• 短い有効期限</text>
    <text x="480" y="410" font-size="14">• ローテーション</text>
  </g>
  
  <!-- Layer 5: Application -->
  <g id="layer5">
    <rect x="250" y="460" width="300" height="80" fill="#fee2e2" stroke="#ef4444" stroke-width="2" rx="5"/>
    <text x="270" y="490" font-size="16" font-weight="bold" fill="#dc2626">第5層: アプリケーション層</text>
    <text x="270" y="510" font-size="14">• 入力検証</text>
    <text x="370" y="510" font-size="14">• 出力エンコーディング</text>
  </g>
  
  <!-- Arrows showing defense depth -->
  <defs>
    <linearGradient id="grad1" x1="0%" y1="0%" x2="0%" y2="100%">
      <stop offset="0%" style="stop-color:#3b82f6;stop-opacity:0.2" />
      <stop offset="100%" style="stop-color:#ef4444;stop-opacity:0.2" />
    </linearGradient>
  </defs>
  
  <!-- Background gradient -->
  <rect x="40" y="55" width="720" height="500" fill="url(#grad1)" rx="10" opacity="0.3"/>
</svg>