<svg xmlns="http://www.w3.org/2000/svg" viewBox="0 0 1200 1000" style="background-color: #f8f9fa;">
  <!-- Title -->
  <text x="600" y="30" text-anchor="middle" font-size="24" font-weight="bold" fill="#1a365d">DPoP (Demonstration of Proof of Possession) Flow</text>
  
  <!-- Actors -->
  <g id="actors">
    <!-- Client -->
    <rect x="50" y="60" width="200" height="60" fill="#4c1d95" rx="5"/>
    <text x="150" y="95" text-anchor="middle" font-size="16" fill="white" font-weight="bold">クライアント</text>
    
    <!-- Authorization Server -->
    <rect x="500" y="60" width="200" height="60" fill="#059669" rx="5"/>
    <text x="600" y="95" text-anchor="middle" font-size="16" fill="white" font-weight="bold">認可サーバー</text>
    
    <!-- Resource Server -->
    <rect x="950" y="60" width="200" height="60" fill="#dc2626" rx="5"/>
    <text x="1050" y="95" text-anchor="middle" font-size="16" fill="white" font-weight="bold">リソースサーバー</text>
  </g>
  
  <!-- Vertical Lines -->
  <line x1="150" y1="120" x2="150" y2="980" stroke="#cbd5e1" stroke-width="2" stroke-dasharray="5,5"/>
  <line x1="600" y1="120" x2="600" y2="980" stroke="#cbd5e1" stroke-width="2" stroke-dasharray="5,5"/>
  <line x1="1050" y1="120" x2="1050" y2="980" stroke="#cbd5e1" stroke-width="2" stroke-dasharray="5,5"/>
  
  <!-- Phase 1: Initial Setup -->
  <g id="phase1">
    <rect x="20" y="150" width="260" height="30" fill="#e0e7ff" stroke="#6366f1" stroke-width="2" rx="5"/>
    <text x="150" y="170" text-anchor="middle" font-size="14" font-weight="bold">1. 初期設定</text>
    
    <!-- Key Generation -->
    <rect x="80" y="200" width="140" height="60" fill="#dbeafe" stroke="#3b82f6" rx="5"/>
    <text x="150" y="220" text-anchor="middle" font-size="12" font-weight="bold">1.1 鍵ペア生成</text>
    <text x="90" y="240" font-size="11">• 公開鍵/秘密鍵</text>
    <text x="90" y="255" font-size="11">• ECDSA (ES256)</text>
  </g>
  
  <!-- Phase 2: Token Request -->
  <g id="phase2">
    <rect x="20" y="280" width="260" height="30" fill="#e0e7ff" stroke="#6366f1" stroke-width="2" rx="5"/>
    <text x="150" y="300" text-anchor="middle" font-size="14" font-weight="bold">2. トークンリクエスト</text>
    
    <!-- DPoP Proof Creation -->
    <rect x="60" y="330" width="180" height="120" fill="#fef3c7" stroke="#f59e0b" rx="5"/>
    <text x="150" y="350" text-anchor="middle" font-size="12" font-weight="bold">2.1 DPoP証明作成</text>
    <text x="70" y="370" font-size="10">Header: {</text>
    <text x="80" y="385" font-size="10">  "typ": "dpop+jwt",</text>
    <text x="80" y="400" font-size="10">  "alg": "ES256",</text>
    <text x="80" y="415" font-size="10">  "jwk": {公開鍵}</text>
    <text x="70" y="430" font-size="10">}</text>
    <text x="70" y="445" font-size="10">Payload: { jti, htm, htu, iat }</text>
    
    <!-- Token Request -->
    <path d="M 150 470 L 590 470" stroke="#3b82f6" stroke-width="2" marker-end="url(#arrowblue)"/>
    <text x="370" y="465" text-anchor="middle" font-size="12" font-weight="bold">POST /token</text>
    <text x="370" y="485" text-anchor="middle" font-size="11">DPoP: eyJ0eXAi...</text>
    
    <!-- DPoP Verification -->
    <rect x="530" y="510" width="140" height="100" fill="#dcfce7" stroke="#22c55e" rx="5"/>
    <text x="600" y="530" text-anchor="middle" font-size="12" font-weight="bold">2.2 DPoP検証</text>
    <text x="540" y="550" font-size="11">• 署名検証</text>
    <text x="540" y="565" font-size="11">• htm/htu確認</text>
    <text x="540" y="580" font-size="11">• 時刻検証</text>
    <text x="540" y="595" font-size="11">• jti重複チェック</text>
    
    <!-- Token Response -->
    <path d="M 590 630 L 160 630" stroke="#22c55e" stroke-width="2" marker-end="url(#arrowgreen)"/>
    <text x="370" y="625" text-anchor="middle" font-size="12" font-weight="bold">200 OK</text>
    <text x="370" y="645" text-anchor="middle" font-size="11">access_token (DPoP bound)</text>
  </g>
  
  <!-- Phase 3: API Access -->
  <g id="phase3">
    <rect x="20" y="670" width="260" height="30" fill="#e0e7ff" stroke="#6366f1" stroke-width="2" rx="5"/>
    <text x="150" y="690" text-anchor="middle" font-size="14" font-weight="bold">3. APIアクセス</text>
    
    <!-- New DPoP Proof -->
    <rect x="60" y="720" width="180" height="80" fill="#fee2e2" stroke="#ef4444" rx="5"/>
    <text x="150" y="740" text-anchor="middle" font-size="12" font-weight="bold">3.1 新DPoP証明作成</text>
    <text x="70" y="760" font-size="11">• 新しいjti</text>
    <text x="70" y="775" font-size="11">• htm: "GET"</text>
    <text x="70" y="790" font-size="11">• ath: token-hash</text>
    
    <!-- API Request -->
    <path d="M 150 820 L 1040 820" stroke="#dc2626" stroke-width="2" marker-end="url(#arrowred)"/>
    <text x="600" y="815" text-anchor="middle" font-size="12" font-weight="bold">GET /api/resource</text>
    <text x="600" y="835" text-anchor="middle" font-size="11">Authorization: DPoP ..., DPoP: eyJ0eXAi...</text>
    
    <!-- Verification -->
    <rect x="980" y="860" width="140" height="100" fill="#e0e7ff" stroke="#6366f1" rx="5"/>
    <text x="1050" y="880" text-anchor="middle" font-size="12" font-weight="bold">3.2 検証処理</text>
    <text x="990" y="900" font-size="11">• トークン検証</text>
    <text x="990" y="915" font-size="11">• DPoP署名検証</text>
    <text x="990" y="930" font-size="11">• 公開鍵照合</text>
    <text x="990" y="945" font-size="11">• ath確認</text>
  </g>
  
  <!-- Arrow Definitions -->
  <defs>
    <marker id="arrowblue" markerWidth="10" markerHeight="10" refX="9" refY="3" orient="auto" markerUnits="strokeWidth">
      <path d="M0,0 L0,6 L9,3 z" fill="#3b82f6"/>
    </marker>
    <marker id="arrowgreen" markerWidth="10" markerHeight="10" refX="9" refY="3" orient="auto" markerUnits="strokeWidth">
      <path d="M0,0 L0,6 L9,3 z" fill="#22c55e"/>
    </marker>
    <marker id="arrowred" markerWidth="10" markerHeight="10" refX="9" refY="3" orient="auto" markerUnits="strokeWidth">
      <path d="M0,0 L0,6 L9,3 z" fill="#dc2626"/>
    </marker>
  </defs>
</svg>